<svg width="223" height="1325" viewBox="0 0 223 1325" fill="none" xmlns="http://www.w3.org/2000/svg">
<g opacity="0.8">
<path d="M77.1122 247.403L77.1125 247.403C82.1041 244.375 88.6097 245.979 91.6359 250.977C94.6615 255.975 93.0581 262.487 88.0655 265.516C81.1781 269.685 75.445 275.617 71.4736 282.702C67.6625 289.498 65.4524 297.354 65.4524 305.753C65.4524 318.706 70.7055 330.473 79.193 338.969C87.6803 347.465 99.404 352.724 112.376 352.724C125.316 352.724 137.071 347.465 145.559 338.969C154.046 330.473 159.299 318.738 159.299 305.753C159.299 288.952 151.441 273.679 139.385 258.907C127.332 244.138 111.034 229.812 94.0731 214.911C50.8536 176.917 3.72915 135.464 0.540023 69.2221C0.267608 63.3747 4.7773 58.4077 10.6161 58.1351C16.4564 57.8625 21.419 62.376 21.6913 68.2219L21.6913 68.2227C24.4602 125.535 68.2261 163.99 108.021 198.945C126.98 215.607 145.115 231.546 158.516 248.718C171.909 265.88 180.545 284.235 180.545 305.722C180.545 324.552 172.901 341.619 160.569 353.964C148.237 366.309 131.187 373.96 112.376 373.96C93.5645 373.96 76.5151 366.309 64.183 353.964C51.8509 341.619 44.2071 324.552 44.2071 305.722C44.2071 293.598 47.3841 282.199 52.9522 272.28C58.7409 262.077 67.0776 253.48 77.1122 247.403ZM210.355 116.661L210.355 116.661C202.213 132.488 190.567 146.325 177.57 156.367C172.94 159.941 166.284 159.092 162.714 154.428L162.713 154.427C159.141 149.791 159.99 143.127 164.619 139.553L164.619 139.553C175.23 131.355 184.784 120.005 191.503 106.936C197.554 95.2035 201.255 82.0886 201.255 68.7062C201.255 62.8281 206.006 58.0723 211.877 58.0723C217.748 58.0723 222.5 62.8281 222.5 68.7062C222.5 85.5542 217.898 102.003 210.355 116.661Z" fill="#070F30" stroke="white"/>
<path d="M151.494 91.7596L151.495 91.7582C155.306 84.9616 157.516 77.1063 157.516 68.7066C157.516 55.7539 152.263 43.9868 143.776 35.4908C135.288 26.9949 123.565 21.7361 110.593 21.7361C97.6528 21.7361 85.8974 26.9947 77.41 35.4908C68.9227 43.9867 63.6694 55.722 63.6694 68.7066C63.6694 85.5084 71.5274 100.781 83.5833 115.553C95.6365 130.321 111.935 144.648 128.896 159.549C172.115 197.544 219.24 238.996 222.429 305.239C222.701 311.086 218.191 316.052 212.353 316.325C206.512 316.597 201.55 312.084 201.277 306.238L201.277 306.237C198.509 248.925 154.743 210.47 114.947 175.515C95.9886 158.853 77.8541 142.914 64.4526 125.742C51.0596 108.58 42.4241 90.2245 42.4241 68.7383C42.4241 49.9074 50.0679 32.8405 62.4 20.4959C74.7321 8.15126 91.7815 0.499992 110.593 0.499993C129.404 0.499994 146.454 8.15127 158.786 20.4959C171.118 32.8405 178.762 49.9074 178.762 68.7383C178.762 80.8616 175.585 92.26 170.017 102.179C164.26 112.35 155.923 120.948 145.856 127.057C140.865 130.085 134.359 128.481 131.333 123.483C128.307 118.485 129.911 111.972 134.904 108.943C141.792 104.774 147.492 98.8425 151.494 91.7596ZM58.3818 234.875L58.3816 234.875C47.7703 243.073 38.2168 254.423 31.4976 267.492C25.4464 279.225 21.7457 292.34 21.7457 305.722C21.7457 311.6 16.9939 316.356 11.123 316.356C5.25211 316.356 0.500402 311.6 0.500403 305.722C0.500403 288.874 5.10238 272.457 12.6452 257.767C20.7877 241.94 32.4335 228.103 45.4302 218.062C50.0585 214.489 56.716 215.366 60.2876 220.001C63.8591 224.637 63.0107 231.301 58.3818 234.875Z" fill="#070F30" stroke="white"/>
<path d="M77.1122 484.916L77.1125 484.915C82.1041 481.887 88.6097 483.492 91.6359 488.49C94.6615 493.487 93.0581 500 88.0655 503.029C81.1781 507.198 75.445 513.129 71.4736 520.215C67.6625 527.011 65.4524 534.866 65.4524 543.266C65.4524 556.219 70.7055 567.986 79.193 576.482C87.6803 584.978 99.404 590.237 112.376 590.237C125.316 590.237 137.071 584.978 145.559 576.482C154.046 567.986 159.299 556.251 159.299 543.266C159.299 526.464 151.441 511.192 139.385 496.42C127.332 481.651 111.034 467.325 94.0731 452.424C50.8536 414.429 3.72915 372.977 0.540023 306.735C0.267608 300.887 4.7773 295.92 10.6161 295.648C16.4564 295.375 21.419 299.889 21.6913 305.735L21.6913 305.735C24.4602 363.048 68.2261 401.503 108.021 436.458C126.98 453.119 145.115 469.059 158.516 486.231C171.909 503.392 180.545 521.748 180.545 543.234C180.545 562.065 172.901 579.132 160.569 591.477C148.237 603.821 131.187 611.473 112.376 611.473C93.5645 611.473 76.5151 603.821 64.183 591.477C51.8509 579.132 44.2071 562.065 44.2071 543.234C44.2071 531.111 47.3841 519.712 52.9522 509.792C58.7409 499.59 67.0776 490.993 77.1122 484.916ZM210.355 354.173L210.355 354.174C202.213 370.001 190.567 383.837 177.57 393.879C172.94 397.454 166.284 396.605 162.714 391.941L162.713 391.94C159.141 387.304 159.99 380.639 164.619 377.066L164.619 377.066C175.23 368.868 184.784 357.518 191.503 344.449C197.554 332.716 201.255 319.601 201.255 306.219C201.255 300.341 206.006 295.585 211.877 295.585C217.748 295.585 222.5 300.341 222.5 306.219C222.5 323.067 217.898 339.515 210.355 354.173Z" fill="#070F30" stroke="white"/>
<path d="M151.493 329.271L151.494 329.27C155.305 322.473 157.515 314.618 157.515 306.218C157.515 293.266 152.262 281.499 143.775 273.003C135.287 264.507 123.564 259.248 110.592 259.248C97.6519 259.248 85.8964 264.506 77.409 273.003C68.9217 281.498 63.6684 293.234 63.6684 306.218C63.6684 323.02 71.5265 338.293 83.5823 353.064C95.6355 367.833 111.934 382.16 128.895 397.061C172.114 435.055 219.239 476.508 222.428 542.75C222.7 548.597 218.19 553.564 212.352 553.837C206.511 554.109 201.549 549.596 201.276 543.75L201.276 543.749C198.508 486.437 154.742 447.982 114.946 413.026C95.9877 396.365 77.8531 380.426 64.4517 363.253C51.0586 346.092 42.4232 327.736 42.4232 306.25C42.4232 287.419 50.0669 270.352 62.399 258.008C74.7311 245.663 91.7805 238.012 110.592 238.012C129.403 238.012 146.453 245.663 158.785 258.008C171.117 270.352 178.761 287.419 178.761 306.25C178.761 318.373 175.584 329.772 170.016 339.691C164.259 349.862 155.923 358.459 145.855 364.569C140.864 367.597 134.358 365.993 131.332 360.994C128.306 355.997 129.91 349.484 134.903 346.455C141.791 342.286 147.491 336.354 151.493 329.271ZM58.3808 472.387L58.3806 472.387C47.7694 480.585 38.2158 491.935 31.4967 505.004C25.4454 516.736 21.7447 529.851 21.7447 543.234C21.7447 549.112 16.993 553.868 11.1221 553.868C5.25113 553.868 0.499426 549.112 0.499426 543.234C0.499427 526.386 5.1014 509.969 12.6443 495.279C20.7868 479.451 32.4325 465.615 45.4292 455.574C50.0575 452 56.715 452.877 60.2866 457.513C63.8581 462.149 63.0097 468.813 58.3808 472.387Z" fill="#070F30" stroke="white"/>
<path d="M77.1122 725.157L77.1125 725.157C82.1041 722.129 88.6097 723.733 91.6359 728.732C94.6615 733.729 93.0581 740.241 88.0655 743.271C81.1781 747.439 75.445 753.371 71.4736 760.456C67.6625 767.253 65.4524 775.108 65.4524 783.508C65.4524 796.46 70.7055 808.227 79.193 816.724C87.6803 825.219 99.404 830.478 112.376 830.478C125.316 830.478 137.071 825.22 145.559 816.724C154.046 808.228 159.299 796.492 159.299 783.508C159.299 766.706 151.441 751.434 139.385 736.662C127.332 721.893 111.034 707.566 94.0731 692.665C50.8536 654.671 3.72915 613.219 0.540023 546.977C0.267608 541.129 4.7773 536.162 10.6161 535.89C16.4564 535.617 21.419 540.13 21.6913 545.976L21.6913 545.977C24.4602 603.29 68.2261 641.745 108.021 676.7C126.98 693.361 145.115 709.3 158.516 726.473C171.909 743.634 180.545 761.99 180.545 783.476C180.545 802.307 172.901 819.374 160.569 831.718C148.237 844.063 131.187 851.714 112.376 851.714C93.5645 851.714 76.5151 844.063 64.183 831.718C51.8509 819.374 44.2071 802.307 44.2071 783.476C44.2071 771.352 47.3841 759.954 52.9522 750.034C58.7409 739.831 67.0776 731.235 77.1122 725.157ZM210.355 594.415L210.355 594.415C202.213 610.243 190.567 624.079 177.57 634.121C172.94 637.695 166.284 636.847 162.714 632.183L162.713 632.181C159.141 627.546 159.99 620.881 164.619 617.308L164.619 617.307C175.23 609.11 184.784 597.76 191.503 584.69C197.554 572.958 201.255 559.843 201.255 546.461C201.255 540.582 206.006 535.827 211.877 535.827C217.748 535.827 222.5 540.582 222.5 546.461C222.5 563.309 217.898 579.757 210.355 594.415Z" fill="#070F30" stroke="white"/>
<path d="M151.493 569.514L151.494 569.513C155.305 562.716 157.515 554.861 157.515 546.461C157.515 533.508 152.262 521.741 143.775 513.245C135.287 504.749 123.564 499.49 110.592 499.49C97.6519 499.49 85.8964 504.749 77.409 513.245C68.9217 521.741 63.6684 533.476 63.6684 546.461C63.6684 563.263 71.5265 578.535 83.5823 593.307C95.6355 608.076 111.934 622.402 128.895 637.303C172.114 675.298 219.239 716.75 222.428 782.993C222.7 788.84 218.19 793.807 212.352 794.079C206.511 794.352 201.549 789.838 201.276 783.992L201.276 783.992C198.508 726.679 154.742 688.224 114.946 653.269C95.9877 636.608 77.8531 620.668 64.4517 603.496C51.0586 586.335 42.4232 567.979 42.4232 546.493C42.4232 527.662 50.0669 510.595 62.399 498.25C74.7311 485.906 91.7805 478.254 110.592 478.254C129.403 478.254 146.453 485.906 158.785 498.25C171.117 510.595 178.761 527.662 178.761 546.493C178.761 558.616 175.584 570.014 170.016 579.934C164.259 590.105 155.923 598.702 145.855 604.812C140.864 607.84 134.358 606.235 131.332 601.237C128.306 596.24 129.91 589.727 134.903 586.698C141.791 582.528 147.491 576.597 151.493 569.514ZM58.3808 712.63L58.3806 712.63C47.7694 720.827 38.2158 732.177 31.4967 745.247C25.4454 756.979 21.7447 770.094 21.7447 783.477C21.7447 789.355 16.993 794.11 11.1221 794.11C5.25113 794.11 0.499426 789.355 0.499426 783.477C0.499427 766.629 5.1014 750.212 12.6443 735.521C20.7868 719.694 32.4325 705.858 45.4292 695.816C50.0575 692.243 56.715 693.12 60.2866 697.756C63.8581 702.391 63.0097 709.056 58.3808 712.63Z" fill="#070F30" stroke="white"/>
<path d="M77.1122 961.304L77.1125 961.304C82.1041 958.275 88.6097 959.88 91.6359 964.878C94.6615 969.875 93.0581 976.388 88.0655 979.417C81.1781 983.586 75.445 989.518 71.4736 996.603C67.6625 1003.4 65.4524 1011.25 65.4524 1019.65C65.4524 1032.61 70.7055 1044.37 79.193 1052.87C87.6803 1061.37 99.404 1066.62 112.376 1066.62C125.316 1066.62 137.071 1061.37 145.559 1052.87C154.046 1044.37 159.299 1032.64 159.299 1019.65C159.299 1002.85 151.441 987.58 139.385 972.808C127.332 958.039 111.034 943.713 94.0731 928.812C50.8536 890.817 3.72915 849.365 0.540023 783.123C0.267608 777.276 4.7773 772.309 10.6161 772.036C16.4564 771.763 21.419 776.277 21.6913 782.123L21.6913 782.124C24.4602 839.436 68.2261 877.891 108.021 912.846C126.98 929.507 145.115 945.447 158.516 962.619C171.909 979.781 180.545 998.136 180.545 1019.62C180.545 1038.45 172.901 1055.52 160.569 1067.86C148.237 1080.21 131.187 1087.86 112.376 1087.86C93.5645 1087.86 76.5151 1080.21 64.183 1067.86C51.8509 1055.52 44.2071 1038.45 44.2071 1019.62C44.2071 1007.5 47.3841 996.1 52.9522 986.181C58.7409 975.978 67.0776 967.381 77.1122 961.304ZM210.355 830.562L210.355 830.562C202.213 846.389 190.567 860.226 177.57 870.267C172.94 873.842 166.284 872.993 162.714 868.329L162.713 868.328C159.141 863.692 159.99 857.028 164.619 853.454L164.619 853.454C175.23 845.256 184.784 833.906 191.503 820.837C197.554 809.104 201.255 795.989 201.255 782.607C201.255 776.729 206.006 771.973 211.877 771.973C217.748 771.973 222.5 776.729 222.5 782.607C222.5 799.455 217.898 815.904 210.355 830.562Z" fill="#070F30" stroke="white"/>
<path d="M151.494 805.66L151.495 805.659C155.306 798.862 157.516 791.007 157.516 782.607C157.516 769.655 152.263 757.888 143.776 749.392C135.288 740.896 123.565 735.637 110.593 735.637C97.6528 735.637 85.8974 740.896 77.41 749.392C68.9227 757.888 63.6694 769.623 63.6694 782.607C63.6694 799.409 71.5274 814.682 83.5833 829.454C95.6365 844.222 111.935 858.549 128.896 873.45C172.115 911.444 219.24 952.897 222.429 1019.14C222.701 1024.99 218.191 1029.95 212.353 1030.23C206.512 1030.5 201.55 1025.98 201.277 1020.14L201.277 1020.14C198.509 962.826 154.743 924.371 114.947 889.415C95.9886 872.754 77.8541 856.815 64.4526 839.643C51.0596 822.481 42.4241 804.125 42.4241 782.639C42.4241 763.808 50.0679 746.741 62.4 734.397C74.7321 722.052 91.7815 714.401 110.593 714.401C129.404 714.401 146.454 722.052 158.786 734.397C171.118 746.741 178.762 763.808 178.762 782.639C178.762 794.762 175.585 806.161 170.017 816.08C164.26 826.251 155.923 834.849 145.856 840.958C140.865 843.986 134.359 842.382 131.333 837.384C128.307 832.386 129.911 825.873 134.904 822.844C141.792 818.675 147.492 812.743 151.494 805.66ZM58.3818 948.776L58.3816 948.776C47.7703 956.974 38.2168 968.324 31.4976 981.393C25.4464 993.126 21.7457 1006.24 21.7457 1019.62C21.7457 1025.5 16.9939 1030.26 11.123 1030.26C5.25211 1030.26 0.500402 1025.5 0.500403 1019.62C0.500403 1002.78 5.10238 986.358 12.6452 971.668C20.7877 955.84 32.4335 942.004 45.4302 931.963C50.0585 928.39 56.716 929.267 60.2876 933.902C63.8591 938.538 63.0107 945.202 58.3818 948.776Z" fill="#070F30" stroke="white"/>
<path d="M77.1122 1197.48L77.1125 1197.48C82.1041 1194.45 88.6097 1196.06 91.6359 1201.06C94.6615 1206.05 93.0581 1212.57 88.0655 1215.6C81.1781 1219.76 75.445 1225.7 71.4736 1232.78C67.6625 1239.58 65.4524 1247.43 65.4524 1255.83C65.4524 1268.79 70.7055 1280.55 79.193 1289.05C87.6803 1297.54 99.404 1302.8 112.376 1302.8C125.316 1302.8 137.071 1297.54 145.559 1289.05C154.046 1280.55 159.299 1268.82 159.299 1255.83C159.299 1239.03 151.441 1223.76 139.385 1208.99C127.332 1194.22 111.034 1179.89 94.0731 1164.99C50.8536 1127 3.72915 1085.54 0.540023 1019.3C0.267608 1013.45 4.7773 1008.49 10.6161 1008.21C16.4564 1007.94 21.419 1012.46 21.6913 1018.3L21.6913 1018.3C24.4602 1075.61 68.2261 1114.07 108.021 1149.02C126.98 1165.69 145.115 1181.63 158.516 1198.8C171.909 1215.96 180.545 1234.31 180.545 1255.8C180.545 1274.63 172.901 1291.7 160.569 1304.04C148.237 1316.39 131.187 1324.04 112.376 1324.04C93.5645 1324.04 76.5151 1316.39 64.183 1304.04C51.8509 1291.7 44.2071 1274.63 44.2071 1255.8C44.2071 1243.68 47.3841 1232.28 52.9522 1222.36C58.7409 1212.16 67.0776 1203.56 77.1122 1197.48ZM210.355 1066.74L210.355 1066.74C202.213 1082.57 190.567 1096.4 177.57 1106.45C172.94 1110.02 166.284 1109.17 162.714 1104.51L162.713 1104.51C159.141 1099.87 159.99 1093.21 164.619 1089.63L164.619 1089.63C175.23 1081.43 184.784 1070.08 191.503 1057.02C197.554 1045.28 201.255 1032.17 201.255 1018.79C201.255 1012.91 206.006 1008.15 211.877 1008.15C217.748 1008.15 222.5 1012.91 222.5 1018.79C222.5 1035.63 217.898 1052.08 210.355 1066.74Z" fill="#070F30" stroke="white"/>
<path d="M151.493 1041.84L151.494 1041.84C155.305 1035.04 157.515 1027.19 157.515 1018.79C157.515 1005.83 152.262 994.066 143.775 985.57C135.287 977.074 123.564 971.816 110.592 971.816C97.6519 971.816 85.8964 977.074 77.409 985.57C68.9217 994.066 63.6684 1005.8 63.6684 1018.79C63.6684 1035.59 71.5265 1050.86 83.5823 1065.63C95.6355 1080.4 111.934 1094.73 128.895 1109.63C172.114 1147.62 219.239 1189.08 222.428 1255.32C222.7 1261.17 218.19 1266.13 212.352 1266.4C206.511 1266.68 201.549 1262.16 201.276 1256.32L201.276 1256.32C198.508 1199 154.742 1160.55 114.946 1125.59C95.9877 1108.93 77.8531 1092.99 64.4517 1075.82C51.0586 1058.66 42.4232 1040.3 42.4232 1018.82C42.4232 999.987 50.0669 982.92 62.399 970.575C74.7311 958.231 91.7805 950.58 110.592 950.58C129.403 950.58 146.453 958.231 158.785 970.575C171.117 982.92 178.761 999.987 178.761 1018.82C178.761 1030.94 175.584 1042.34 170.016 1052.26C164.259 1062.43 155.923 1071.03 145.855 1077.14C140.864 1080.17 134.358 1078.56 131.332 1073.56C128.306 1068.56 129.91 1062.05 134.903 1059.02C141.791 1054.85 147.491 1048.92 151.493 1041.84ZM58.3808 1184.95L58.3806 1184.95C47.7694 1193.15 38.2158 1204.5 31.4967 1217.57C25.4454 1229.3 21.7447 1242.42 21.7447 1255.8C21.7447 1261.68 16.993 1266.44 11.1221 1266.44C5.25113 1266.44 0.499426 1261.68 0.499426 1255.8C0.499427 1238.95 5.1014 1222.54 12.6443 1207.85C20.7868 1192.02 32.4325 1178.18 45.4292 1168.14C50.0575 1164.57 56.715 1165.45 60.2866 1170.08C63.8581 1174.72 63.0097 1181.38 58.3808 1184.95Z" fill="#070F30" stroke="white"/>
</g>
</svg>
