<svg width="213" height="84" viewBox="0 0 213 84" fill="none" xmlns="http://www.w3.org/2000/svg">
<path fill-rule="evenodd" clip-rule="evenodd" d="M8.48543 13.7545C10.3001 15.9901 12.3181 18.4183 15.5642 19.0549C17.457 21.2832 19.1935 23.8445 22.6898 24.5922C24.6062 26.8501 26.3973 29.5521 29.8937 30.3664C32.3497 33.261 34.0236 36.0666 38.8496 36.5774C53.1088 38.0876 66.8126 39.4645 80.8136 40.8267C82.3545 42.8328 84.6384 44.4392 87.1179 45.9124L104.639 56.2912C105.749 56.95 107.251 56.95 108.37 56.2912L125.891 45.9124C128.362 44.4466 130.654 42.8328 132.187 40.8267C146.196 39.4719 159.9 38.095 174.159 36.5774C178.993 36.0666 180.659 33.261 183.115 30.3664C186.611 29.5521 188.402 26.8501 190.319 24.5922C193.807 23.8445 195.544 21.2906 197.444 19.0549C200.69 18.4109 202.708 15.9901 204.523 13.7545C207.472 13.2437 208.974 11.6743 210.796 9.55706L212.681 7.36582C213.064 6.92906 213.104 6.39605 212.791 5.92227C212.478 5.44849 211.907 5.17458 211.242 5.17458H134.236C125.069 1.79149 116.77 0 106.5 0C96.2303 0 87.9314 1.79149 78.7643 5.17458H1.75869C1.09384 5.17458 0.522847 5.44849 0.209975 5.92227C-0.102896 6.39605 -0.0637875 6.92165 0.311659 7.36582L2.19671 9.55706C4.03483 11.6743 5.53662 13.2437 8.48543 13.7545ZM66.4919 26.5836L66.5544 26.7094L67.6808 30.4553C68.549 33.3202 70.2933 35.578 72.6633 37.2955L69.6832 36.9994C65.0527 36.533 61.2121 34.2899 59.5305 30.7958L57.2621 26.0728L66.4919 26.5836ZM125.523 20.2023L115.636 26.9759L111.53 21.8754C113.078 26.3985 113.759 28.3381 118.256 41.3671L106.5 33.2461L94.7442 41.3671C99.2417 28.3381 99.9222 26.3985 101.471 21.8754L97.3645 26.9759L87.4777 20.2023L102.034 20.2246C102.957 17.5299 104.232 13.7693 106.5 7.12153C108.769 13.7693 110.051 17.5299 110.967 20.2246L125.523 20.2023ZM131.194 7.97286V33.8236C131.194 37.6434 130.529 40.1826 124.021 44.0395L107.65 53.7372V50.7613L122.152 42.1666C124.498 40.7822 127.103 39.0426 127.815 36.7255C128.104 35.7927 128.135 34.7785 128.135 33.8236V9.33498L131.194 7.97286ZM105.351 53.7372L88.9873 44.0395C82.4796 40.1826 81.8148 37.6434 81.8148 33.8236V7.97286L84.8731 9.33498V33.8236C84.8731 34.7785 84.9044 35.7927 85.1938 36.7255C85.8977 39.0426 88.5102 40.7822 90.8568 42.1666L105.358 50.7613V53.7372H105.351ZM82.7377 6.33683C89.9807 3.78285 98.0215 2.36151 106.5 2.36151C114.979 2.36151 123.028 3.78285 130.263 6.33683L126.962 7.80999C120.47 5.76681 113.54 4.72301 106.5 4.72301C99.4607 4.72301 92.5306 5.75941 86.0385 7.80999L82.7377 6.33683ZM146.509 26.5836L155.739 26.058L153.47 30.781C151.789 34.2751 147.948 36.5182 143.318 36.9846L140.33 37.2807C142.7 35.5706 144.444 33.3054 145.312 30.4405L146.438 26.6946L146.509 26.5836ZM207.918 7.97286C206.471 9.6459 205.493 11.0672 202.56 11.1339L147.408 12.4664L142.176 29.8482C141.041 33.6237 138.03 36.1258 133.869 37.5102C134.19 36.2961 134.26 35.0672 134.26 33.831V7.97286H207.918ZM150.31 14.169L165.477 13.8803L163.412 17.9149C161.558 21.5423 157.53 23.889 152.68 24.1629L147.15 24.4738L150.31 14.169ZM195.403 16.4861L167.354 17.5447L169.255 13.8063L200.761 13.2141C199.322 14.9241 198.344 16.3751 195.403 16.4861ZM188.246 22.0531L162.684 23.5558C164.124 22.475 165.328 21.1721 166.228 19.6841L193.612 18.6477C192.149 20.3652 191.203 21.8828 188.246 22.0531ZM181.011 27.8643L157.694 29.7298L159.563 25.8359L186.384 24.3035C184.906 26.0432 183.967 27.6274 181.011 27.8643ZM173.776 33.8088L153.361 35.9704C154.745 34.8304 155.864 33.4608 156.646 31.8988L179.157 30.0999C177.663 31.8618 176.724 33.4978 173.776 33.8088ZM5.09078 7.97286H78.7486V33.8236C78.7486 35.0598 78.819 36.2961 79.1475 37.5028C74.9785 36.1258 71.9671 33.6163 70.833 29.8408L65.5924 12.459L10.4487 11.1265C7.51553 11.0672 6.53781 9.6459 5.09078 7.97286ZM62.6983 14.169L65.8505 24.4812L60.3205 24.1703C55.4631 23.8964 51.4349 21.5497 49.589 17.9223L47.5318 13.8877L62.6983 14.169ZM17.5978 16.4861C14.6568 16.3751 13.6791 14.9241 12.2399 13.2215L43.7461 13.8137L45.6468 17.5521L17.5978 16.4861ZM24.7548 22.0531C21.806 21.8828 20.8517 20.3652 19.389 18.6403L46.7731 19.6767C47.6726 21.1647 48.8694 22.4676 50.3086 23.5484L24.7548 22.0531ZM31.9899 27.8643C29.0333 27.6274 28.1025 26.0506 26.6164 24.3035L53.4373 25.8359L55.3067 29.7298L31.9899 27.8643ZM39.2251 33.8088C36.2763 33.4978 35.3377 31.8618 33.8437 30.0999L56.3548 31.8988C57.137 33.4608 58.2555 34.8304 59.64 35.9704L39.2251 33.8088ZM67.9389 81.0685C65.4046 81.0685 64.9197 80.0617 64.9197 78.3072V70.8081C64.9197 69.1277 65.4046 68.0469 67.9389 68.0469C70.6531 68.0469 71.1145 69.1277 71.1145 70.8081V78.2998C71.1145 80.0617 70.481 81.0685 67.9389 81.0685ZM67.9389 84C72.585 84 74.6187 82.2899 74.6187 78.4775V70.6379C74.6187 66.7218 72.6633 65.1154 67.9389 65.1154C63.2223 65.1154 61.4155 66.7218 61.4155 70.6379V78.4701C61.4155 82.2899 63.2927 84 67.9389 84ZM105.546 65.33V83.8519H117.146V80.8242H109.042V75.9457H115.644V72.9698H109.042V68.2097H116.778V65.33H105.546V65.33ZM41.5951 83.8297H52.9289V80.6983H46.1552V80.6169L52.9523 67.9432V65.3004H42.1739V68.4318H48.6503V68.5133L41.5873 81.7347V83.8297H41.5951ZM171.413 65.4041H159.923V68.3356H163.951V83.6891H167.401V68.3356H171.406V65.4041H171.413ZM150.78 71.4226H147.283V83.7113H150.78V71.4226ZM137.655 80.6835H130.177V65.33H126.681V83.6891H137.662V80.6835H137.655ZM97.0047 83.6891L92.7496 76.7008C95.0883 75.9827 96.0974 74.5096 96.0974 71.7927V70.8378C96.0974 66.9513 93.9072 65.33 89.222 65.33H84.3334V83.6891H87.8063V77.2264H89.089L92.9452 83.6891H97.0047ZM87.7828 74.1986V68.3578H89.2689C91.9674 68.3578 92.4446 69.261 92.4446 71.0006V71.6225C92.4446 73.3621 91.7406 74.1986 89.222 74.1986H87.7828ZM152.469 65.4041L150.373 66.855L151.178 69.1795L149.082 67.7286L146.986 69.1795L147.792 66.855L145.688 65.4041H148.284C148.449 64.9229 148.675 64.2492 149.082 63.0648L149.88 65.4041H152.469Z" fill="#ffffff"/>
</svg>
