<svg width="30" height="32" viewBox="0 0 30 32" fill="none" xmlns="http://www.w3.org/2000/svg">
<path fill-rule="evenodd" clip-rule="evenodd" d="M26.4497 11.4178L20.6476 15.4497L18.2378 12.4136C19.1466 15.106 19.546 16.2605 22.1854 24.0158L15.2862 19.1819L8.38707 24.0158C11.0265 16.2605 11.4258 15.106 12.3347 12.4136L9.92481 15.4497L4.12273 11.4178L12.6652 11.431C13.2068 9.82705 13.9551 7.58858 15.2862 3.63158C16.6174 7.58858 17.3702 9.82705 17.9073 11.431L26.4497 11.4178ZM29.7777 4.13833V19.5257C29.7777 21.7994 29.3875 23.3108 25.5684 25.6066L15.961 31.379V29.6076L24.4713 24.4917C25.8484 23.6677 27.377 22.6322 27.7947 21.253C27.9645 20.6978 27.9829 20.0941 27.9829 19.5257V4.94911L29.7777 4.13833ZM14.6115 31.379L5.00864 25.6066C1.18955 23.3108 0.799377 21.7994 0.799377 19.5257V4.13833L2.59417 4.94911V19.5257C2.59417 20.0941 2.61253 20.6978 2.78237 21.253C3.19549 22.6322 4.72864 23.6677 6.10572 24.4917L14.6161 29.6076V31.379H14.6115ZM1.34103 3.1645C5.5916 1.64427 10.3104 0.798236 15.2862 0.798236C20.2621 0.798236 24.9854 1.64427 29.2314 3.1645L27.2943 4.04138C23.4844 2.8252 19.4175 2.20389 15.2862 2.20389C11.155 2.20389 7.08803 2.8208 3.27812 4.04138L1.34103 3.1645Z" fill="#2596CF"/>
</svg>
