<svg width="1200" height="195" viewBox="0 0 1200 195" fill="none" xmlns="http://www.w3.org/2000/svg">
<path d="M-179.567 80.8805C-175.021 78.1215 -173.561 72.1898 -176.316 67.6375C-181.634 58.8365 -189.156 51.5252 -198.083 46.4488C-206.763 41.5656 -216.737 38.7791 -227.345 38.7791C-243.822 38.7791 -258.756 45.4832 -269.557 56.2983C-280.358 67.1134 -287.053 82.0668 -287.053 98.5653C-287.053 115.064 -280.358 130.017 -269.557 140.832C-258.756 151.647 -243.822 158.352 -227.345 158.352C-189.762 158.352 -163.201 128.058 -134.269 95.0615C-103.971 60.4882 -70.7982 22.6794 -21.4818 20.0689C-21.1502 20.1033 -20.8136 20.1208 -20.4729 20.1208C-8.92682 20.1208 2.39877 23.3216 12.5395 28.5644C23.8375 34.3866 33.6475 42.6646 40.7294 51.8532C43.9811 56.0749 50.0435 56.8475 54.2596 53.5916C58.4756 50.3355 59.2748 44.265 56.0231 40.0432C47.2603 28.6748 35.1907 18.4928 21.385 11.3737C8.57141 4.77889 -5.75784 0.750381 -20.4729 0.750381C-20.6407 0.750381 -20.8076 0.754592 -20.9734 0.763015C-21.2901 0.74652 -21.6106 0.745643 -21.934 0.760733C-79.6812 3.54707 -115.803 44.7313 -148.782 82.3332L-148.79 82.3427C-174.69 111.891 -198.469 138.984 -227.372 138.984C-238.532 138.984 -248.616 134.459 -255.918 127.148C-263.22 119.837 -267.738 109.711 -267.738 98.5653C-267.738 87.3916 -263.22 77.2938 -255.918 69.9827C-248.616 62.6715 -238.504 58.1467 -227.373 58.1467C-220.153 58.1467 -213.403 60.0504 -207.562 63.3335C-201.472 66.7547 -196.375 71.6932 -192.793 77.6249C-190.038 82.1772 -184.114 83.6394 -179.567 80.8805Z" fill="url(#paint0_linear)"/>
<path fill-rule="evenodd" clip-rule="evenodd" d="M-63.3193 184.258C-77.1235 177.14 -89.1919 166.959 -97.9539 155.593C-101.205 151.371 -100.434 145.302 -96.1905 142.046C-91.9748 138.791 -85.9131 139.563 -82.6618 143.784C-75.5806 152.972 -65.7715 161.249 -54.4746 167.07C-44.3349 172.312 -33.0105 175.512 -21.4656 175.512C-21.1402 175.512 -20.8186 175.528 -20.5015 175.56C28.8294 172.957 62.0101 135.138 92.3146 100.556C121.249 67.5538 147.813 37.2563 185.4 37.2563C201.878 37.2563 216.814 43.9615 227.616 54.7782C238.418 65.5947 245.114 80.5502 245.114 97.0512C245.114 99.5689 244.958 102.051 244.655 104.487C251.239 97.562 257.838 90.0356 264.581 82.3429L264.589 82.3334C297.568 44.7315 333.69 3.54724 391.437 0.760909C391.76 0.745818 392.08 0.746871 392.396 0.76319C392.48 0.758979 392.565 0.755645 392.65 0.753539C392.733 0.751433 392.815 0.750381 392.899 0.750381C407.614 0.750381 421.943 4.77906 434.756 11.3739C448.562 18.493 460.632 28.675 469.395 40.0433C472.646 44.265 471.847 50.3357 467.631 53.5916C463.415 56.8477 457.353 56.0751 454.101 51.8534C447.019 42.6647 437.209 34.3868 425.911 28.5646C415.77 23.3218 404.445 20.121 392.899 20.121C392.816 20.121 392.733 20.12 392.65 20.118C392.567 20.1159 392.485 20.1128 392.402 20.1086C392.23 20.0998 392.059 20.0866 391.89 20.0691C342.573 22.6794 309.399 60.4882 279.102 95.0615C250.17 128.058 223.609 158.352 186.026 158.352C169.549 158.352 154.615 151.648 143.814 140.832C133.013 130.017 126.318 115.064 126.318 98.5653C126.318 96.0424 126.474 93.5556 126.778 91.1141C120.19 98.0442 113.585 105.577 106.837 113.276L106.829 113.285C73.8462 150.892 37.7212 192.083 -20.032 194.87C-20.3507 194.885 -20.6666 194.884 -20.9789 194.868C-21.1401 194.876 -21.3024 194.88 -21.4656 194.88C-36.1791 194.88 -50.5345 190.852 -63.3193 184.258ZM150.844 117.994C150.568 117.538 150.259 117.112 149.924 116.719C147.179 111.256 145.633 105.086 145.633 98.5653C145.633 87.3918 150.151 77.294 157.453 69.9827C164.755 62.6716 174.867 58.1469 185.998 58.1469C193.217 58.1469 199.968 60.0506 205.809 63.3337C211.899 66.7547 216.996 71.6932 220.578 77.6251C220.861 78.0924 221.177 78.527 221.522 78.928C224.257 84.3831 225.797 90.5432 225.797 97.0512C225.797 108.226 221.278 118.326 213.975 125.638C206.673 132.95 196.56 137.475 185.427 137.475C178.207 137.475 171.456 135.571 165.614 132.288C159.524 128.839 154.426 123.927 150.844 117.994Z" fill="url(#paint1_linear)"/>
<path fill-rule="evenodd" clip-rule="evenodd" d="M38.4283 97.051C38.4283 99.5689 38.2723 102.051 37.9697 104.487C44.5531 97.5622 51.1524 90.0358 57.8955 82.3429L57.9038 82.3334C90.8831 44.7315 127.004 3.54724 184.752 0.760909C185.074 0.745818 185.394 0.746871 185.71 0.76319C185.877 0.754767 186.044 0.750381 186.213 0.750381C200.928 0.750381 215.257 4.77889 228.071 11.3737C241.876 18.4928 253.946 28.6748 262.709 40.0432C265.96 44.265 265.161 50.3355 260.945 53.5916C256.729 56.8475 250.667 56.0749 247.415 51.8532C240.333 42.6646 230.523 34.3866 219.225 28.5644C209.084 23.3216 197.759 20.1208 186.213 20.1208C185.872 20.1208 185.536 20.1033 185.205 20.0691C135.888 22.6791 102.714 60.4881 72.4162 95.0615C43.4851 128.058 16.9236 158.352 -20.6593 158.352C-37.1363 158.352 -52.0703 151.648 -62.8712 140.832C-73.6722 130.017 -80.3676 115.064 -80.3676 98.5653C-80.3676 96.0422 -80.211 93.5552 -79.9071 91.1137C-86.4957 98.044 -93.1002 105.577 -99.8488 113.276L-99.8574 113.286L-99.858 113.286C-132.84 150.893 -168.965 192.083 -226.718 194.869C-232.036 195.118 -236.555 191.006 -236.803 185.681C-237.051 180.355 -232.945 175.83 -227.627 175.582C-178.053 173.181 -144.765 135.24 -114.371 100.555C-85.4369 67.5536 -58.8727 37.2561 -21.286 37.2561C-4.80743 37.2561 10.128 43.9613 20.93 54.778C31.7321 65.5945 38.4283 80.5502 38.4283 97.051ZM19.1114 97.051C19.1114 90.5429 17.571 84.3826 14.8358 78.9273C14.4914 78.5265 14.1754 78.092 13.8927 77.6251C10.3108 71.6932 5.21338 66.7547 -0.875946 63.3337C-6.71729 60.0506 -13.4679 58.1469 -20.6869 58.1469C-31.8185 58.1469 -41.9306 62.6716 -49.2323 69.9827C-56.5339 77.294 -61.0527 87.3918 -61.0527 98.5653C-61.0527 105.086 -59.5063 111.257 -56.7609 116.72C-56.4257 117.113 -56.1177 117.538 -55.8415 117.994C-52.2592 123.927 -47.1613 128.838 -41.0714 132.288C-35.2295 135.571 -28.4782 137.475 -21.2585 137.475C-10.1258 137.475 -0.0126648 132.95 7.28973 125.638C14.5921 118.326 19.1114 108.226 19.1114 97.051Z" fill="url(#paint2_linear)"/>
<path d="M-185.301 11.3737C-171.495 18.4928 -159.425 28.6746 -150.662 40.0432C-147.411 44.2649 -148.21 50.3354 -152.426 53.5914C-156.642 56.8475 -162.704 56.0749 -165.956 51.853C-173.038 42.6646 -182.848 34.3864 -194.146 28.5643C-204.287 23.3215 -215.612 20.1207 -227.158 20.1207C-232.504 20.1207 -236.831 15.7886 -236.831 10.4354C-236.831 5.08228 -232.504 0.750205 -227.158 0.750205C-212.443 0.750205 -198.114 4.77889 -185.301 11.3737Z" fill="url(#paint3_linear)"/>
<path fill-rule="evenodd" clip-rule="evenodd" d="M108.732 155.593C117.494 166.96 129.562 177.14 143.366 184.258C156.151 190.852 170.507 194.88 185.22 194.88C185.297 194.88 185.373 194.879 185.449 194.878C185.503 194.876 185.556 194.875 185.61 194.872L185.708 194.868C186.02 194.884 186.335 194.885 186.654 194.87C244.407 192.083 280.532 150.892 313.514 113.285L313.522 113.276C320.271 105.577 326.875 98.0437 333.464 91.1133C333.16 93.5551 333.004 96.0422 333.004 98.5655C333.004 115.064 339.699 130.017 350.5 140.833C361.301 151.648 376.235 158.352 392.712 158.352C430.295 158.352 456.856 128.059 485.787 95.0617C516.086 60.4879 549.26 22.6784 598.577 20.0689C598.619 20.0733 598.661 20.0773 598.702 20.081C598.744 20.0847 598.785 20.0882 598.827 20.0914L598.943 20.0998C599.072 20.1082 599.202 20.114 599.332 20.1173C599.416 20.1196 599.5 20.1207 599.584 20.1207C611.13 20.1207 622.456 23.3215 632.596 28.5643C643.894 34.3864 653.704 42.6646 660.786 51.853C664.038 56.0749 670.1 56.8475 674.316 53.5914C678.533 50.3354 679.332 44.2649 676.08 40.0432C667.317 28.6746 655.247 18.4928 641.442 11.3737C628.628 4.77889 614.299 0.750205 599.584 0.750205C599.415 0.750205 599.247 0.754416 599.08 0.763015L598.98 0.758277C598.956 0.757224 598.931 0.756522 598.907 0.75582L598.866 0.754416L598.773 0.752135C598.724 0.751258 598.675 0.750556 598.626 0.750381C598.525 0.749854 598.422 0.750907 598.32 0.753539L598.219 0.756698L598.123 0.760909C540.376 3.54724 504.254 44.7315 471.275 82.3334L471.267 82.3429C464.524 90.0359 457.924 97.5623 451.341 104.488C451.643 102.051 451.799 99.5691 451.799 97.0512C451.799 80.5502 445.103 65.5947 434.301 54.7782C423.499 43.9615 408.564 37.2563 392.085 37.2563C354.498 37.2563 327.934 67.5538 299 100.556C268.695 135.138 235.514 172.957 186.183 175.56C185.866 175.529 185.545 175.512 185.22 175.512C173.675 175.512 162.351 172.312 152.211 167.07C140.914 161.249 131.105 152.972 124.024 143.785C120.773 139.563 114.711 138.791 110.495 142.046C106.252 145.302 105.48 151.372 108.732 155.593ZM427.264 77.6251C427.546 78.0919 427.862 78.5261 428.207 78.9268C430.942 84.3822 432.482 90.5427 432.482 97.0512C432.482 108.226 427.963 118.326 420.661 125.638C413.358 132.95 403.245 137.475 392.113 137.475C384.893 137.475 378.142 135.571 372.3 132.288C366.21 128.839 361.112 123.927 357.53 117.994C357.253 117.538 356.946 117.113 356.61 116.72C353.865 111.257 352.319 105.086 352.319 98.5655C352.319 87.3918 356.837 77.2942 364.139 69.9829C371.441 62.6716 381.553 58.1471 392.684 58.1471C399.903 58.1471 406.654 60.0506 412.495 63.3339C418.585 66.7549 423.682 71.6934 427.264 77.6251Z" fill="url(#paint4_linear)"/>
<path fill-rule="evenodd" clip-rule="evenodd" d="M315.417 155.593C324.179 166.96 336.247 177.14 350.052 184.258C362.836 190.852 377.192 194.88 391.905 194.88L392.006 194.88L392.069 194.879C392.178 194.877 392.286 194.874 392.394 194.868C392.447 194.871 392.501 194.873 392.555 194.875C392.605 194.876 392.655 194.878 392.706 194.879C392.76 194.88 392.814 194.88 392.868 194.88C393.024 194.881 393.181 194.877 393.339 194.87C451.093 192.083 487.217 150.893 520.2 113.286L520.208 113.276C526.957 105.577 533.561 98.0442 540.15 91.1141C539.846 93.5556 539.689 96.0424 539.689 98.5653C539.689 115.064 546.385 130.017 557.186 140.832C567.987 151.647 582.921 158.352 599.398 158.352C636.98 158.352 663.542 128.058 692.473 95.0615C722.771 60.4882 755.944 22.6794 805.261 20.0689C805.592 20.1033 805.929 20.1208 806.27 20.1208C817.816 20.1208 829.141 23.3216 839.282 28.5644C850.58 34.3866 860.39 42.6646 867.472 51.8532C870.724 56.0749 876.786 56.8475 881.002 53.5916C885.218 50.3355 886.017 44.265 882.766 40.0432C874.003 28.6748 861.933 18.4928 848.128 11.3737C835.314 4.77889 820.985 0.750381 806.27 0.750381C806.167 0.750381 806.064 0.75196 805.962 0.755118L805.897 0.757224C805.855 0.758803 805.812 0.760733 805.769 0.763015C805.452 0.74652 805.132 0.745643 804.808 0.760733C747.061 3.54707 710.94 44.7313 677.961 82.3332L677.952 82.3427C671.209 90.0354 664.61 97.5618 658.027 104.487C658.329 102.051 658.485 99.5689 658.485 97.0512C658.485 80.5504 651.789 65.5948 640.987 54.7782C630.185 43.9617 615.25 37.2565 598.771 37.2565C561.184 37.2565 534.62 67.554 505.686 100.556C475.382 135.138 442.201 172.957 392.87 175.56C392.552 175.528 392.231 175.512 391.905 175.512C380.36 175.512 369.036 172.312 358.896 167.07C347.599 161.249 337.79 152.972 330.709 143.785C327.458 139.563 321.396 138.791 317.18 142.046C312.937 145.302 312.166 151.372 315.417 155.593ZM633.949 77.6249C634.232 78.092 634.548 78.5265 634.893 78.9273C637.628 84.3827 639.168 90.5429 639.168 97.0512C639.168 108.227 634.649 118.326 627.347 125.638C620.044 132.95 609.931 137.475 598.798 137.475C591.579 137.475 584.828 135.572 578.986 132.288C572.896 128.839 567.798 123.927 564.215 117.995C563.939 117.538 563.631 117.113 563.296 116.72C560.551 111.257 559.004 105.086 559.004 98.5653C559.004 87.3916 563.523 77.2938 570.825 69.9827C578.126 62.6715 588.238 58.1467 599.37 58.1467C606.589 58.1467 613.34 60.0504 619.181 63.3335C625.27 66.7547 630.367 71.6932 633.949 77.6249Z" fill="url(#paint5_linear)"/>
<path fill-rule="evenodd" clip-rule="evenodd" d="M522.103 155.593C530.865 166.96 542.933 177.14 556.738 184.258C569.522 190.852 583.878 194.88 598.591 194.88L598.686 194.88C598.724 194.879 598.763 194.879 598.801 194.878C598.895 194.876 598.988 194.873 599.081 194.868C599.393 194.884 599.707 194.884 600.025 194.869C657.778 192.083 693.903 150.893 726.885 113.286L726.894 113.276C733.642 105.577 740.246 98.0442 746.835 91.1141C746.531 93.5556 746.375 96.0424 746.375 98.5653C746.375 115.064 753.07 130.017 763.871 140.832C774.672 151.648 789.606 158.352 806.083 158.352C843.666 158.352 870.227 128.058 899.158 95.0615C929.457 60.4879 962.63 22.6789 1011.95 20.0691C1012.28 20.1033 1012.61 20.1208 1012.96 20.1208C1024.5 20.1208 1035.83 23.3216 1045.97 28.5644C1057.27 34.3866 1067.08 42.6646 1074.16 51.8532C1077.41 56.0749 1083.47 56.8475 1087.69 53.5916C1091.9 50.3355 1092.7 44.265 1089.45 40.0432C1080.69 28.6748 1068.62 18.4928 1054.81 11.3737C1042 4.77889 1027.67 0.750381 1012.96 0.750381C1012.84 0.750381 1012.73 0.752486 1012.61 0.756522C1012.56 0.758277 1012.51 0.760558 1012.45 0.76319C1012.14 0.746871 1011.82 0.745818 1011.49 0.760909C953.747 3.54724 917.625 44.7315 884.646 82.3334L884.638 82.3429C877.895 90.0356 871.296 97.5618 864.712 104.487C865.015 102.05 865.171 99.5687 865.171 97.051C865.171 80.5502 858.474 65.5945 847.672 54.778C836.87 43.9613 821.935 37.2561 805.456 37.2561C767.87 37.2561 741.306 67.5536 712.372 100.555C682.066 135.138 648.885 172.958 599.552 175.56C599.236 175.529 598.915 175.513 598.591 175.513C587.046 175.513 575.722 172.312 565.582 167.07C554.285 161.249 544.476 152.972 537.395 143.785C534.144 139.563 528.082 138.791 523.866 142.046C519.623 145.302 518.852 151.372 522.103 155.593ZM840.635 77.6251C840.918 78.0924 841.234 78.5272 841.579 78.9282C844.313 84.3833 845.854 90.5431 845.854 97.051C845.854 108.226 841.334 118.326 834.032 125.638C826.73 132.95 816.617 137.475 805.484 137.475C798.264 137.475 791.513 135.571 785.671 132.288C779.581 128.838 774.483 123.927 770.901 117.994C770.625 117.538 770.316 117.112 769.981 116.719C767.236 111.256 765.689 105.086 765.689 98.5653C765.689 87.3918 770.208 77.294 777.51 69.9827C784.812 62.6716 794.924 58.1469 806.055 58.1469C813.274 58.1469 820.025 60.0506 825.866 63.3337C831.955 66.7547 837.053 71.6932 840.635 77.6251Z" fill="url(#paint6_linear)"/>
<path fill-rule="evenodd" clip-rule="evenodd" d="M728.789 155.593C737.551 166.959 749.619 177.14 763.423 184.258C776.208 190.852 790.563 194.88 805.277 194.88L805.347 194.88C805.39 194.879 805.433 194.879 805.476 194.878C805.53 194.877 805.584 194.875 805.638 194.874C805.68 194.872 805.722 194.87 805.764 194.868C806.076 194.884 806.392 194.885 806.711 194.87C864.464 192.083 900.589 150.892 933.571 113.285L933.579 113.276C940.328 105.577 946.932 98.044 953.521 91.1137C953.217 93.5552 953.06 96.0422 953.06 98.5653C953.06 115.064 959.756 130.017 970.557 140.832C981.358 151.648 996.292 158.352 1012.77 158.352C1050.35 158.352 1076.91 128.058 1105.84 95.0615C1136.14 60.4882 1169.32 22.6796 1218.63 20.0691C1218.96 20.1035 1219.3 20.121 1219.64 20.121C1231.19 20.121 1242.51 23.3218 1252.65 28.5646C1263.95 34.3868 1273.76 42.6647 1280.84 51.8534C1284.09 56.0751 1290.16 56.8477 1294.37 53.5916C1298.59 50.3357 1299.39 44.265 1296.14 40.0433C1287.37 28.675 1275.3 18.493 1261.5 11.3739C1248.69 4.77906 1234.36 0.750381 1219.64 0.750381C1219.47 0.750381 1219.31 0.754767 1219.14 0.76319C1218.82 0.746871 1218.5 0.745818 1218.18 0.760909C1160.43 3.54724 1124.31 44.7315 1091.33 82.3334L1091.32 82.3429C1084.58 90.0358 1077.98 97.5622 1071.4 104.487C1071.7 102.051 1071.86 99.5691 1071.86 97.0512C1071.86 80.5502 1065.16 65.5947 1054.36 54.7782C1043.56 43.9615 1028.62 37.2563 1012.14 37.2563C974.555 37.2563 947.991 67.5538 919.057 100.556C888.753 135.138 855.572 172.957 806.241 175.56C805.924 175.528 805.602 175.512 805.277 175.512C793.732 175.512 782.408 172.312 772.268 167.07C760.971 161.249 751.162 152.972 744.081 143.784C740.829 139.563 734.768 138.791 730.552 142.046C726.309 145.302 725.537 151.371 728.789 155.593ZM1047.32 77.6251C1047.6 78.092 1047.92 78.5263 1048.26 78.9271C1051 84.3826 1052.54 90.5429 1052.54 97.0512C1052.54 108.226 1048.02 118.326 1040.72 125.638C1033.42 132.95 1023.3 137.475 1012.17 137.475C1004.95 137.475 998.199 135.571 992.357 132.288C986.267 128.839 981.169 123.927 977.587 117.994C977.31 117.538 977.003 117.113 976.667 116.72C973.922 111.257 972.375 105.086 972.375 98.5653C972.375 87.3918 976.894 77.294 984.196 69.9827C991.498 62.6716 1001.61 58.1469 1012.74 58.1469C1019.96 58.1469 1026.71 60.0506 1032.55 63.3337C1038.64 66.7547 1043.74 71.6932 1047.32 77.6251Z" fill="url(#paint7_linear)"/>
<path fill-rule="evenodd" clip-rule="evenodd" d="M935.474 155.593C944.236 166.96 956.304 177.14 970.108 184.258C982.893 190.852 997.249 194.88 1011.96 194.88C1012 194.88 1012.05 194.88 1012.09 194.879C1012.13 194.879 1012.17 194.878 1012.21 194.877C1012.29 194.875 1012.37 194.872 1012.45 194.868C1012.76 194.884 1013.08 194.885 1013.4 194.87C1071.15 192.083 1107.27 150.892 1140.26 113.285L1140.26 113.276C1147.01 105.577 1153.62 98.044 1160.21 91.1137C1159.9 93.5554 1159.75 96.0424 1159.75 98.5655C1159.75 115.064 1166.44 130.017 1177.24 140.833C1188.04 151.648 1202.98 158.352 1219.45 158.352C1257.04 158.352 1283.6 128.059 1312.53 95.0617C1342.92 60.3817 1376.21 22.4462 1425.77 20.0459C1431.09 19.7976 1435.2 15.2731 1434.95 9.94832C1434.7 4.62342 1430.18 0.512615 1424.87 0.760909C1367.12 3.54724 1331 44.7315 1298.02 82.3334L1298.01 82.3429C1291.27 90.0358 1284.67 97.5622 1278.08 104.487C1278.39 102.051 1278.54 99.5691 1278.54 97.0512C1278.54 80.5502 1271.85 65.5947 1261.04 54.7782C1250.24 43.9615 1235.31 37.2563 1218.83 37.2563C1181.24 37.2563 1154.68 67.5538 1125.74 100.556C1095.44 135.138 1062.26 172.957 1012.93 175.56C1012.61 175.529 1012.29 175.512 1011.96 175.512C1000.42 175.512 989.093 172.312 978.953 167.07C967.656 161.249 957.847 152.972 950.766 143.785C947.515 139.563 941.453 138.791 937.237 142.046C932.994 145.302 932.223 151.372 935.474 155.593ZM1254.01 77.6251C1254.29 78.092 1254.6 78.5265 1254.95 78.9273C1257.68 84.3826 1259.22 90.5429 1259.22 97.0512C1259.22 108.226 1254.71 118.326 1247.4 125.638C1240.1 132.95 1229.99 137.475 1218.86 137.475C1211.64 137.475 1204.88 135.571 1199.04 132.288C1192.95 128.839 1187.85 123.927 1184.27 117.994C1184 117.538 1183.69 117.113 1183.35 116.72C1180.61 111.257 1179.06 105.086 1179.06 98.5655C1179.06 87.3918 1183.58 77.2942 1190.88 69.9829C1198.18 62.6716 1208.3 58.1471 1219.43 58.1471C1226.65 58.1471 1233.4 60.0506 1239.24 63.3339C1245.33 66.7549 1250.42 71.6934 1254.01 77.6251Z" fill="url(#paint8_linear)"/>
<path d="M1142.16 155.593C1150.92 166.96 1162.99 177.14 1176.79 184.258C1189.58 190.852 1203.93 194.88 1218.65 194.88C1218.81 194.88 1218.97 194.876 1219.14 194.868C1219.45 194.884 1219.76 194.885 1220.08 194.87C1277.83 192.083 1313.96 150.893 1346.94 113.285L1346.95 113.276C1372.85 83.7237 1396.63 56.6269 1425.54 56.6269C1436.7 56.6269 1446.79 61.1522 1454.09 68.4645C1461.39 75.7767 1465.91 85.9036 1465.91 97.0512C1465.91 108.227 1461.39 118.326 1454.09 125.638C1446.79 132.95 1436.67 137.475 1425.54 137.475C1418.32 137.475 1411.57 135.572 1405.73 132.288C1399.64 128.839 1394.54 123.927 1390.96 117.995C1388.2 113.442 1382.28 111.979 1377.73 114.739C1373.18 117.498 1371.72 123.431 1374.48 127.983C1379.83 136.813 1387.35 144.126 1396.25 149.175C1404.93 154.059 1414.9 156.846 1425.51 156.846C1441.99 156.846 1456.93 150.141 1467.73 139.324C1478.53 128.508 1485.23 113.552 1485.23 97.0512C1485.23 80.5504 1478.53 65.5948 1467.73 54.7782C1456.93 43.9617 1441.99 37.2565 1425.51 37.2565C1387.93 37.2565 1361.36 67.554 1332.43 100.556C1302.12 135.138 1268.94 172.957 1219.61 175.56C1219.3 175.528 1218.97 175.512 1218.65 175.512C1207.1 175.512 1195.78 172.312 1185.64 167.07C1174.34 161.249 1164.53 152.972 1157.45 143.785C1154.2 139.563 1148.14 138.791 1143.92 142.046C1139.68 145.302 1138.91 151.372 1142.16 155.593Z" fill="url(#paint9_linear)"/>
<path d="M1348.85 155.593C1357.61 166.96 1369.68 177.14 1383.48 184.258C1396.26 190.852 1410.62 194.88 1425.33 194.88C1430.68 194.88 1435.01 190.549 1435.01 185.196C1435.01 179.844 1430.68 175.513 1425.33 175.513C1413.79 175.513 1402.46 172.312 1392.32 167.07C1381.03 161.249 1371.22 152.972 1364.14 143.785C1360.89 139.563 1354.82 138.791 1350.61 142.046C1346.37 145.302 1345.59 151.372 1348.85 155.593Z" fill="url(#paint10_linear)"/>
<defs>
<linearGradient id="paint0_linear" x1="1201.33" y1="97.7796" x2="-97.0726" y2="97.7792" gradientUnits="userSpaceOnUse">
<stop stop-color="#7C0540" stop-opacity="0"/>
<stop offset="0.432292" stop-color="#7C0540"/>
<stop offset="1" stop-color="#7C0540" stop-opacity="0"/>
</linearGradient>
<linearGradient id="paint1_linear" x1="1201.33" y1="97.7796" x2="-97.0726" y2="97.7792" gradientUnits="userSpaceOnUse">
<stop stop-color="#7C0540" stop-opacity="0"/>
<stop offset="0.432292" stop-color="#7C0540"/>
<stop offset="1" stop-color="#7C0540" stop-opacity="0"/>
</linearGradient>
<linearGradient id="paint2_linear" x1="1201.33" y1="97.7796" x2="-97.0726" y2="97.7792" gradientUnits="userSpaceOnUse">
<stop stop-color="#7C0540" stop-opacity="0"/>
<stop offset="0.432292" stop-color="#7C0540"/>
<stop offset="1" stop-color="#7C0540" stop-opacity="0"/>
</linearGradient>
<linearGradient id="paint3_linear" x1="1201.33" y1="97.7796" x2="-97.0726" y2="97.7792" gradientUnits="userSpaceOnUse">
<stop stop-color="#7C0540" stop-opacity="0"/>
<stop offset="0.432292" stop-color="#7C0540"/>
<stop offset="1" stop-color="#7C0540" stop-opacity="0"/>
</linearGradient>
<linearGradient id="paint4_linear" x1="1201.33" y1="97.7796" x2="-97.0726" y2="97.7792" gradientUnits="userSpaceOnUse">
<stop stop-color="#7C0540" stop-opacity="0"/>
<stop offset="0.432292" stop-color="#7C0540"/>
<stop offset="1" stop-color="#7C0540" stop-opacity="0"/>
</linearGradient>
<linearGradient id="paint5_linear" x1="1201.33" y1="97.7796" x2="-97.0726" y2="97.7792" gradientUnits="userSpaceOnUse">
<stop stop-color="#7C0540" stop-opacity="0"/>
<stop offset="0.432292" stop-color="#7C0540"/>
<stop offset="1" stop-color="#7C0540" stop-opacity="0"/>
</linearGradient>
<linearGradient id="paint6_linear" x1="1201.33" y1="97.7796" x2="-97.0726" y2="97.7792" gradientUnits="userSpaceOnUse">
<stop stop-color="#7C0540" stop-opacity="0"/>
<stop offset="0.432292" stop-color="#7C0540"/>
<stop offset="1" stop-color="#7C0540" stop-opacity="0"/>
</linearGradient>
<linearGradient id="paint7_linear" x1="1201.33" y1="97.7796" x2="-97.0726" y2="97.7792" gradientUnits="userSpaceOnUse">
<stop stop-color="#7C0540" stop-opacity="0"/>
<stop offset="0.432292" stop-color="#7C0540"/>
<stop offset="1" stop-color="#7C0540" stop-opacity="0"/>
</linearGradient>
<linearGradient id="paint8_linear" x1="1201.33" y1="97.7796" x2="-97.0726" y2="97.7792" gradientUnits="userSpaceOnUse">
<stop stop-color="#7C0540" stop-opacity="0"/>
<stop offset="0.432292" stop-color="#7C0540"/>
<stop offset="1" stop-color="#7C0540" stop-opacity="0"/>
</linearGradient>
<linearGradient id="paint9_linear" x1="1201.33" y1="97.7796" x2="-97.0726" y2="97.7792" gradientUnits="userSpaceOnUse">
<stop stop-color="#7C0540" stop-opacity="0"/>
<stop offset="0.432292" stop-color="#7C0540"/>
<stop offset="1" stop-color="#7C0540" stop-opacity="0"/>
</linearGradient>
<linearGradient id="paint10_linear" x1="1201.33" y1="97.7796" x2="-97.0726" y2="97.7792" gradientUnits="userSpaceOnUse">
<stop stop-color="#7C0540" stop-opacity="0"/>
<stop offset="0.432292" stop-color="#7C0540"/>
<stop offset="1" stop-color="#7C0540" stop-opacity="0"/>
</linearGradient>
</defs>
</svg>
