<svg width="1920" height="1387" viewBox="0 0 1920 1387" fill="none" xmlns="http://www.w3.org/2000/svg">
<g opacity="0.7" filter="url(#filter0_d)">
<path fill-rule="evenodd" clip-rule="evenodd" d="M1197.37 830.824C1184.77 810.051 1191.45 782.983 1212.24 770.393C1233.03 757.803 1260.13 764.476 1272.73 785.249C1289.12 812.317 1312.43 834.853 1340.28 850.464C1367 865.446 1397.88 874.133 1430.9 874.133C1481.81 874.133 1528.06 853.486 1561.46 820.123C1594.86 786.76 1615.52 740.681 1615.52 689.692C1615.52 638.829 1594.86 592.624 1561.46 559.261C1528.06 525.898 1481.94 505.251 1430.9 505.251C1298.69 505.251 1189.93 628.883 1071.47 763.72C920.616 935.32 755.396 1123.29 491.245 1136C466.922 1137.14 446.254 1118.38 445.12 1094.08C443.986 1069.78 462.764 1049.13 487.087 1048C713.807 1037.05 866.047 863.935 1005.05 705.681C1137.38 555.107 1258.87 416.87 1430.77 416.87C1506.13 416.87 1574.44 447.464 1623.84 496.816C1673.24 546.168 1703.87 614.405 1703.87 689.692C1703.87 764.979 1673.24 833.216 1623.84 882.568C1574.44 931.921 1506.13 962.514 1430.77 962.514C1382.25 962.514 1336.63 949.798 1296.93 927.514C1256.1 904.349 1221.69 870.986 1197.37 830.824ZM838.951 429.46C798.875 377.59 743.676 331.133 680.536 298.652C622.06 268.562 556.401 250.181 489.103 250.181C464.654 250.181 444.868 269.947 444.868 294.371C444.868 318.795 464.654 338.561 489.103 338.561C541.908 338.561 593.705 353.166 640.082 377.086C691.753 403.651 736.618 441.42 769.007 483.345C783.878 502.607 811.604 506.132 830.886 491.276C850.294 476.42 853.822 448.722 838.951 429.46Z" fill="black"/>
<path fill-rule="evenodd" clip-rule="evenodd" d="M722.631 555.643C735.234 576.416 728.554 603.484 707.76 616.074C686.966 628.664 659.87 621.991 647.267 601.218C630.884 574.15 607.569 551.74 579.717 536.002C553 521.021 522.124 512.334 489.105 512.334C438.19 512.334 391.939 532.981 358.542 566.344C325.145 599.707 304.477 645.786 304.477 696.775C304.477 747.638 325.145 793.842 358.542 827.206C391.939 860.569 438.064 881.216 489.105 881.216C621.306 881.216 730.066 757.584 848.531 622.746C999.384 451.147 1164.6 263.181 1428.75 250.465C1453.08 249.332 1473.75 268.091 1474.88 292.389C1476.01 316.687 1457.24 337.335 1432.91 338.468C1206.19 349.421 1053.95 522.531 914.947 680.786C782.619 831.36 661.13 969.597 489.231 969.597C413.867 969.597 345.561 939.003 296.159 889.651C246.757 840.299 216.132 772.062 216.132 696.775C216.132 621.487 246.757 553.251 296.159 503.898C345.561 454.546 413.867 423.953 489.231 423.953C537.751 423.953 583.372 436.669 623.07 458.953C663.777 481.992 698.182 515.355 722.631 555.643ZM1080.92 956.881C1121 1008.75 1176.2 1055.21 1239.34 1087.69C1297.94 1117.78 1363.47 1136.16 1430.77 1136.16C1455.22 1136.16 1475.01 1116.39 1475.01 1091.97C1475.01 1067.55 1455.22 1047.78 1430.77 1047.78C1377.97 1047.78 1326.17 1033.18 1279.79 1009.25C1228.12 982.69 1183.26 944.921 1150.87 902.996C1136 883.734 1108.27 880.209 1088.99 895.065C1069.71 909.921 1066.05 937.618 1080.92 956.881Z" fill="black"/>
</g>
<defs>
<filter id="filter0_d" x="-33.8677" y="0.180664" width="1987.74" height="1385.98" filterUnits="userSpaceOnUse" color-interpolation-filters="sRGB">
<feFlood flood-opacity="0" result="BackgroundImageFix"/>
<feColorMatrix in="SourceAlpha" type="matrix" values="0 0 0 0 0 0 0 0 0 0 0 0 0 0 0 0 0 0 127 0"/>
<feOffset/>
<feGaussianBlur stdDeviation="125"/>
<feColorMatrix type="matrix" values="0 0 0 0 1 0 0 0 0 0 0 0 0 0 0.541176 0 0 0 0.4 0"/>
<feBlend mode="normal" in2="BackgroundImageFix" result="effect1_dropShadow"/>
<feBlend mode="normal" in="SourceGraphic" in2="effect1_dropShadow" result="shape"/>
</filter>
</defs>
</svg>
