<svg width="223" height="1325" fill="none" xmlns="http://www.w3.org/2000/svg"><g opacity=".8" fill="#070F30" stroke="#fff"><path d="M77.112 247.403h0c4.992-3.028 11.498-1.424 14.524 3.574 3.026 4.998 1.422 11.51-3.57 14.539a46.906 46.906 0 00-16.592 17.186 46.983 46.983 0 00-6.022 23.051c0 12.953 5.254 24.72 13.741 33.216 8.487 8.496 20.211 13.755 33.183 13.755 12.94 0 24.695-5.259 33.183-13.755 8.487-8.496 13.74-20.231 13.74-33.216 0-16.801-7.858-32.074-19.914-46.846-12.053-14.769-28.351-29.095-45.312-43.996C50.853 176.917 3.73 135.464.54 69.222c-.272-5.847 4.237-10.814 10.076-11.087 5.84-.273 10.803 4.241 11.075 10.087h0c2.77 57.313 46.535 95.768 86.33 130.723 18.959 16.662 37.094 32.601 50.495 49.773 13.393 17.162 22.029 35.517 22.029 57.004 0 18.83-7.644 35.897-19.976 48.242-12.332 12.345-29.382 19.996-48.193 19.996-18.812 0-35.86-7.651-48.193-19.996-12.332-12.345-19.976-29.412-19.976-48.242a68.095 68.095 0 018.745-33.442 68.817 68.817 0 0124.16-24.877zm133.243-130.742h0c-8.142 15.827-19.788 29.664-32.785 39.706-4.63 3.574-11.286 2.725-14.856-1.939l-.001-.001c-3.572-4.636-2.723-11.3 1.906-14.874h0c10.611-8.198 20.165-19.548 26.884-32.617 6.051-11.733 9.752-24.847 9.752-38.23 0-5.878 4.751-10.634 10.622-10.634 5.871 0 10.623 4.756 10.623 10.634 0 16.848-4.602 33.297-12.145 47.955z"/><path d="M151.494 91.76l.001-.002a46.986 46.986 0 006.021-23.051c0-12.953-5.253-24.72-13.74-33.216-8.488-8.496-20.211-13.755-33.183-13.755-12.94 0-24.696 5.259-33.183 13.755-8.487 8.496-13.74 20.231-13.74 33.216 0 16.801 7.857 32.074 19.913 46.846 12.053 14.768 28.352 29.095 45.313 43.996 43.219 37.995 90.344 79.447 93.533 145.69.272 5.847-4.238 10.813-10.076 11.086-5.841.272-10.803-4.241-11.076-10.087v-.001c-2.768-57.312-46.534-95.767-86.33-130.722-18.958-16.662-37.093-32.601-50.494-49.773C51.06 108.58 42.424 90.225 42.424 68.738c0-18.83 7.644-35.898 19.976-48.242C74.732 8.15 91.781.5 110.593.5c18.811 0 35.861 7.651 48.193 19.996 12.332 12.345 19.976 29.411 19.976 48.242a68.093 68.093 0 01-8.745 33.441c-5.757 10.171-14.094 18.769-24.161 24.878-4.991 3.028-11.497 1.424-14.523-3.574-3.026-4.998-1.422-11.511 3.571-14.54 6.888-4.169 12.588-10.1 16.59-17.183zM58.382 234.875h0c-10.612 8.198-20.165 19.548-26.884 32.617-6.052 11.733-9.752 24.848-9.752 38.23 0 5.878-4.752 10.634-10.623 10.634C5.253 316.356.5 311.6.5 305.722c0-16.848 4.602-33.265 12.145-47.955 8.143-15.827 19.788-29.664 32.785-39.705 4.629-3.573 11.286-2.696 14.858 1.939 3.571 4.636 2.723 11.3-1.906 14.874z"/><path d="M77.112 484.916v-.001c4.992-3.028 11.498-1.423 14.524 3.575 3.026 4.997 1.422 11.51-3.57 14.539a46.898 46.898 0 00-16.592 17.186 46.98 46.98 0 00-6.022 23.051c0 12.953 5.254 24.72 13.741 33.216 8.487 8.496 20.211 13.755 33.183 13.755 12.94 0 24.695-5.259 33.183-13.755 8.487-8.496 13.74-20.231 13.74-33.216 0-16.802-7.858-32.074-19.914-46.846-12.053-14.769-28.351-29.095-45.312-43.996C50.853 414.429 3.73 372.977.54 306.735c-.272-5.848 4.237-10.815 10.076-11.087 5.84-.273 10.803 4.241 11.075 10.087h0c2.77 57.313 46.535 95.768 86.33 130.723 18.959 16.661 37.094 32.601 50.495 49.773 13.393 17.161 22.029 35.517 22.029 57.003 0 18.831-7.644 35.898-19.976 48.243-12.332 12.344-29.382 19.996-48.193 19.996-18.812 0-35.86-7.652-48.193-19.996-12.332-12.345-19.976-29.412-19.976-48.243a68.1 68.1 0 018.745-33.442 68.822 68.822 0 0124.16-24.876zm133.243-130.743v.001c-8.142 15.827-19.788 29.663-32.785 39.705-4.63 3.575-11.286 2.726-14.856-1.938l-.001-.001c-3.572-4.636-2.723-11.301 1.906-14.874h0c10.611-8.198 20.165-19.548 26.884-32.617 6.051-11.733 9.752-24.848 9.752-38.23 0-5.878 4.751-10.634 10.622-10.634 5.871 0 10.623 4.756 10.623 10.634 0 16.848-4.602 33.296-12.145 47.954z"/><path d="M151.493 329.271l.001-.001a46.988 46.988 0 006.021-23.052c0-12.952-5.253-24.719-13.74-33.215-8.488-8.496-20.211-13.755-33.183-13.755-12.94 0-24.696 5.258-33.183 13.755-8.487 8.495-13.74 20.231-13.74 33.215 0 16.802 7.858 32.075 19.913 46.846 12.053 14.769 28.352 29.096 45.313 43.997 43.219 37.994 90.344 79.447 93.533 145.689.272 5.847-4.238 10.814-10.076 11.087-5.841.272-10.803-4.241-11.076-10.087v-.001c-2.768-57.312-46.534-95.767-86.33-130.723-18.958-16.661-37.093-32.6-50.494-49.773-13.393-17.161-22.029-35.517-22.029-57.003 0-18.831 7.644-35.898 19.976-48.242 12.332-12.345 29.382-19.996 48.193-19.996 18.811 0 35.861 7.651 48.193 19.996 12.332 12.344 19.976 29.411 19.976 48.242a68.095 68.095 0 01-8.745 33.441c-5.757 10.171-14.093 18.768-24.161 24.878-4.991 3.028-11.497 1.424-14.523-3.575-3.026-4.997-1.422-11.51 3.571-14.539 6.888-4.169 12.588-10.101 16.59-17.184zM58.381 472.387h0c-10.612 8.198-20.165 19.548-26.884 32.617-6.052 11.732-9.752 24.847-9.752 38.23 0 5.878-4.752 10.634-10.623 10.634-5.87 0-10.623-4.756-10.623-10.634 0-16.848 4.602-33.265 12.145-47.955 8.143-15.828 19.788-29.664 32.785-39.705 4.628-3.574 11.286-2.697 14.858 1.939 3.571 4.636 2.723 11.3-1.906 14.874z"/><path d="M77.112 725.157h0c4.992-3.028 11.498-1.424 14.524 3.575 3.026 4.997 1.422 11.509-3.57 14.539a46.896 46.896 0 00-16.592 17.185 46.987 46.987 0 00-6.022 23.052c0 12.952 5.254 24.719 13.741 33.216 8.487 8.495 20.211 13.754 33.183 13.754 12.94 0 24.695-5.258 33.183-13.754 8.487-8.496 13.74-20.232 13.74-33.216 0-16.802-7.858-32.074-19.914-46.846-12.053-14.769-28.351-29.096-45.312-43.997C50.853 654.671 3.73 613.219.54 546.977c-.272-5.848 4.237-10.815 10.076-11.087 5.84-.273 10.803 4.24 11.075 10.086v.001c2.77 57.313 46.535 95.768 86.33 130.723 18.959 16.661 37.094 32.6 50.495 49.773 13.393 17.161 22.029 35.517 22.029 57.003 0 18.831-7.644 35.898-19.976 48.242-12.332 12.345-29.382 19.996-48.193 19.996-18.812 0-35.86-7.651-48.193-19.996-12.332-12.344-19.976-29.411-19.976-48.242a68.098 68.098 0 018.745-33.442 68.825 68.825 0 0124.16-24.877zm133.243-130.742h0c-8.142 15.828-19.788 29.664-32.785 39.706-4.63 3.574-11.286 2.726-14.856-1.938l-.001-.002c-3.572-4.635-2.723-11.3 1.906-14.873v-.001c10.611-8.197 20.165-19.547 26.884-32.617 6.051-11.732 9.752-24.847 9.752-38.229 0-5.879 4.751-10.634 10.622-10.634 5.871 0 10.623 4.755 10.623 10.634 0 16.848-4.602 33.296-12.145 47.954z"/><path d="M151.493 569.514l.001-.001a46.988 46.988 0 006.021-23.052c0-12.953-5.253-24.72-13.74-33.216-8.488-8.496-20.211-13.755-33.183-13.755-12.94 0-24.696 5.259-33.183 13.755-8.487 8.496-13.74 20.231-13.74 33.216 0 16.802 7.858 32.074 19.913 46.846 12.053 14.769 28.352 29.095 45.313 43.996 43.219 37.995 90.344 79.447 93.533 145.69.272 5.847-4.238 10.814-10.076 11.086-5.841.273-10.803-4.241-11.076-10.087h0c-2.768-57.313-46.534-95.768-86.33-130.723-18.958-16.661-37.093-32.601-50.494-49.773-13.393-17.161-22.029-35.517-22.029-57.003 0-18.831 7.644-35.898 19.976-48.243 12.332-12.344 29.382-19.996 48.193-19.996 18.811 0 35.861 7.652 48.193 19.996 12.332 12.345 19.976 29.412 19.976 48.243a68.098 68.098 0 01-8.745 33.441c-5.757 10.171-14.093 18.768-24.161 24.878-4.991 3.028-11.497 1.423-14.523-3.575-3.026-4.997-1.422-11.51 3.571-14.539 6.888-4.17 12.588-10.101 16.59-17.184zM58.381 712.63h0c-10.612 8.197-20.165 19.547-26.884 32.617-6.052 11.732-9.752 24.847-9.752 38.23 0 5.878-4.752 10.633-10.623 10.633C5.252 794.11.5 789.355.5 783.477c0-16.848 4.602-33.265 12.145-47.956 8.143-15.827 19.788-29.663 32.785-39.705 4.628-3.573 11.286-2.696 14.858 1.94 3.571 4.635 2.723 11.3-1.906 14.874z"/><path d="M77.112 961.304h0c4.992-3.029 11.498-1.424 14.524 3.574 3.026 4.997 1.422 11.51-3.57 14.539a46.906 46.906 0 00-16.592 17.186 46.968 46.968 0 00-6.022 23.047c0 12.96 5.254 24.72 13.741 33.22s20.211 13.75 33.183 13.75c12.94 0 24.695-5.25 33.183-13.75 8.487-8.5 13.74-20.23 13.74-33.22 0-16.8-7.858-32.07-19.914-46.842-12.053-14.769-28.351-29.095-45.312-43.996C50.853 890.817 3.73 849.365.54 783.123c-.272-5.847 4.237-10.814 10.076-11.087 5.84-.273 10.803 4.241 11.075 10.087v.001c2.77 57.312 46.535 95.767 86.33 130.722 18.959 16.661 37.094 32.601 50.495 49.773 13.393 17.162 22.029 35.517 22.029 57.001 0 18.83-7.644 35.9-19.976 48.24-12.332 12.35-29.382 20-48.193 20-18.812 0-35.86-7.65-48.193-20-12.332-12.34-19.976-29.41-19.976-48.24 0-12.12 3.177-23.52 8.745-33.439a68.817 68.817 0 0124.16-24.877zm133.243-130.742h0c-8.142 15.827-19.788 29.664-32.785 39.705-4.63 3.575-11.286 2.726-14.856-1.938l-.001-.001c-3.572-4.636-2.723-11.3 1.906-14.874h0c10.611-8.198 20.165-19.548 26.884-32.617 6.051-11.733 9.752-24.848 9.752-38.23 0-5.878 4.751-10.634 10.622-10.634 5.871 0 10.623 4.756 10.623 10.634 0 16.848-4.602 33.297-12.145 47.955z"/><path d="M151.494 805.66l.001-.001a46.988 46.988 0 006.021-23.052c0-12.952-5.253-24.719-13.74-33.215-8.488-8.496-20.211-13.755-33.183-13.755-12.94 0-24.696 5.259-33.183 13.755-8.487 8.496-13.74 20.231-13.74 33.215 0 16.802 7.857 32.075 19.913 46.847 12.053 14.768 28.352 29.095 45.313 43.996 43.219 37.994 90.344 79.447 93.533 145.69.272 5.85-4.238 10.81-10.076 11.09-5.841.27-10.803-4.25-11.076-10.09h0c-2.768-57.314-46.534-95.769-86.33-130.725-18.958-16.661-37.093-32.6-50.494-49.772-13.393-17.162-22.029-35.518-22.029-57.004 0-18.831 7.644-35.898 19.976-48.242 12.332-12.345 29.381-19.996 48.193-19.996 18.811 0 35.861 7.651 48.193 19.996 12.332 12.344 19.976 29.411 19.976 48.242a68.095 68.095 0 01-8.745 33.441c-5.757 10.171-14.094 18.769-24.161 24.878-4.991 3.028-11.497 1.424-14.523-3.574-3.026-4.998-1.422-11.511 3.571-14.54 6.888-4.169 12.588-10.101 16.59-17.184zM58.382 948.776h0c-10.612 8.198-20.165 19.548-26.884 32.617-6.052 11.733-9.752 24.847-9.752 38.227 0 5.88-4.752 10.64-10.623 10.64-5.87 0-10.623-4.76-10.623-10.64 0-16.84 4.602-33.262 12.145-47.952 8.143-15.828 19.788-29.664 32.785-39.705 4.629-3.573 11.286-2.696 14.858 1.939 3.571 4.636 2.723 11.3-1.906 14.874z"/><path d="M77.112 1197.48h0c4.992-3.03 11.498-1.42 14.524 3.58 3.026 4.99 1.422 11.51-3.57 14.54-6.888 4.16-12.621 10.1-16.592 17.18a46.988 46.988 0 00-6.022 23.05c0 12.96 5.254 24.72 13.741 33.22 8.487 8.49 20.211 13.75 33.183 13.75 12.94 0 24.695-5.26 33.183-13.75 8.487-8.5 13.74-20.23 13.74-33.22 0-16.8-7.858-32.07-19.914-46.84-12.053-14.77-28.351-29.1-45.312-44C50.853 1127 3.73 1085.54.54 1019.3c-.272-5.85 4.237-10.81 10.076-11.09 5.84-.27 10.803 4.25 11.075 10.09h0c2.77 57.31 46.535 95.77 86.33 130.72 18.959 16.67 37.094 32.61 50.495 49.78 13.393 17.16 22.029 35.51 22.029 57 0 18.83-7.644 35.9-19.976 48.24-12.332 12.35-29.382 20-48.193 20-18.812 0-35.86-7.65-48.193-20-12.332-12.34-19.976-29.41-19.976-48.24 0-12.12 3.177-23.52 8.745-33.44a68.873 68.873 0 0124.16-24.88zm133.243-130.74h0c-8.142 15.83-19.788 29.66-32.785 39.71-4.63 3.57-11.286 2.72-14.856-1.94h-.001c-3.572-4.64-2.723-11.3 1.906-14.88h0c10.611-8.2 20.165-19.55 26.884-32.61 6.051-11.74 9.752-24.85 9.752-38.23 0-5.88 4.751-10.64 10.622-10.64 5.871 0 10.623 4.76 10.623 10.64 0 16.84-4.602 33.29-12.145 47.95z"/><path d="M151.493 1041.84h.001a46.989 46.989 0 006.021-23.05c0-12.96-5.253-24.724-13.74-33.22-8.488-8.496-20.211-13.754-33.183-13.754-12.94 0-24.696 5.258-33.183 13.754-8.487 8.496-13.74 20.23-13.74 33.22 0 16.8 7.858 32.07 19.913 46.84 12.053 14.77 28.352 29.1 45.313 44 43.219 37.99 90.344 79.45 93.533 145.69.272 5.85-4.238 10.81-10.076 11.08-5.841.28-10.803-4.24-11.076-10.08h0c-2.768-57.32-46.534-95.77-86.33-130.73-18.958-16.66-37.093-32.6-50.494-49.77-13.393-17.16-22.029-35.52-22.029-57 0-18.833 7.644-35.9 19.976-48.245 12.332-12.344 29.382-19.995 48.193-19.995 18.811 0 35.861 7.651 48.193 19.995 12.332 12.345 19.976 29.412 19.976 48.245 0 12.12-3.177 23.52-8.745 33.44a68.82 68.82 0 01-24.161 24.88c-4.991 3.03-11.497 1.42-14.523-3.58s-1.422-11.51 3.571-14.54c6.888-4.17 12.588-10.1 16.59-17.18zm-93.112 143.11h0c-10.612 8.2-20.165 19.55-26.884 32.62-6.052 11.73-9.752 24.85-9.752 38.23 0 5.88-4.752 10.64-10.623 10.64-5.87 0-10.623-4.76-10.623-10.64 0-16.85 4.602-33.26 12.145-47.95 8.143-15.83 19.788-29.67 32.785-39.71 4.628-3.57 11.286-2.69 14.858 1.94 3.571 4.64 2.723 11.3-1.906 14.87z"/></g></svg>