<svg width="213" height="84" fill="none" xmlns="http://www.w3.org/2000/svg"><path fill-rule="evenodd" clip-rule="evenodd" d="M8.485 13.755c1.815 2.235 3.833 4.663 7.08 5.3 1.892 2.228 3.629 4.79 7.125 5.537 1.916 2.258 3.707 4.96 7.204 5.774 2.456 2.895 4.13 5.7 8.956 6.211a4890.731 4890.731 0 0041.964 4.25c1.54 2.006 3.824 3.612 6.304 5.085l17.521 10.38c1.11.658 2.612.658 3.731 0l17.521-10.38c2.471-1.465 4.763-3.08 6.296-5.085a4336.747 4336.747 0 0041.972-4.25c4.834-.51 6.5-3.316 8.956-6.21 3.496-.815 5.287-3.517 7.204-5.775 3.488-.747 5.225-3.301 7.125-5.537 3.246-.644 5.264-3.065 7.079-5.3 2.949-.511 4.451-2.08 6.273-4.198l1.885-2.191c.383-.437.423-.97.11-1.444s-.884-.747-1.549-.747h-77.006C125.069 1.79 116.77 0 106.5 0S87.931 1.791 78.764 5.175H1.76c-.665 0-1.236.273-1.549.747-.313.474-.274 1 .102 1.444l1.885 2.191c1.838 2.117 3.34 3.687 6.288 4.197zm58.007 12.829l.062.125 1.127 3.746c.868 2.865 2.612 5.123 4.982 6.84L69.683 37c-4.63-.466-8.47-2.71-10.153-6.203l-2.268-4.723 9.23.51zm59.031-6.382l-9.887 6.774-4.106-5.1c1.548 4.522 2.229 6.462 6.726 19.491l-11.756-8.12-11.756 8.12c4.498-13.029 5.178-14.968 6.727-19.492l-4.106 5.1-9.887-6.773 14.556.023c.923-2.695 2.198-6.456 4.466-13.103a11970.82 11970.82 0 014.467 13.103l14.556-.023zm5.671-12.23v25.852c0 3.82-.665 6.359-7.173 10.215l-16.371 9.698v-2.976l14.502-8.594c2.346-1.385 4.951-3.124 5.663-5.442.289-.932.32-1.947.32-2.901V9.335l3.059-1.362zm-25.843 45.765L88.987 44.04c-6.507-3.856-7.172-6.396-7.172-10.215V7.973l3.058 1.362v24.489c0 .955.031 1.969.32 2.901.705 2.318 3.317 4.057 5.664 5.442l14.501 8.594v2.976h-.007zm-22.613-47.4C89.98 3.783 98.022 2.362 106.5 2.362c8.479 0 16.528 1.42 23.763 3.975l-3.301 1.473C120.47 5.767 113.54 4.723 106.5 4.723c-7.04 0-13.97 1.036-20.462 3.087l-3.3-1.473zm63.771 20.247l9.23-.526-2.269 4.723c-1.681 3.494-5.522 5.737-10.152 6.204l-2.988.296c2.37-1.71 4.114-3.976 4.982-6.84l1.126-3.746.071-.111zm61.409-18.611c-1.447 1.673-2.425 3.094-5.358 3.16l-55.152 1.333-5.232 17.382c-1.135 3.776-4.146 6.278-8.307 7.662.321-1.214.391-2.443.391-3.679V7.973h73.658zm-57.608 6.196l15.167-.289-2.065 4.035c-1.854 3.627-5.882 5.974-10.732 6.248l-5.53.31 3.16-10.304zm45.093 2.317l-28.049 1.059 1.901-3.739 31.506-.592c-1.439 1.71-2.417 3.161-5.358 3.272zm-7.157 5.567l-25.562 1.503c1.44-1.081 2.644-2.384 3.544-3.872l27.384-1.036c-1.463 1.717-2.409 3.235-5.366 3.405zm-7.235 5.811l-23.317 1.866 1.869-3.894 26.821-1.532c-1.478 1.74-2.417 3.323-5.373 3.56zm-7.235 5.945l-20.415 2.161c1.384-1.14 2.503-2.51 3.285-4.071l22.511-1.8c-1.494 1.763-2.433 3.399-5.381 3.71zM5.091 7.973h73.658v25.85c0 1.237.07 2.473.398 3.68-4.169-1.377-7.18-3.887-8.314-7.662l-5.24-17.382-55.144-1.332c-2.933-.06-3.911-1.481-5.358-3.154zm57.607 6.196l3.152 10.312-5.53-.31c-4.857-.275-8.885-2.621-10.731-6.249l-2.057-4.034 15.166.281zm-45.1 2.317c-2.941-.11-3.919-1.562-5.358-3.264l31.506.592 1.9 3.738-28.048-1.066zm7.157 5.567c-2.949-.17-3.903-1.688-5.366-3.413l27.384 1.037c.9 1.488 2.096 2.79 3.536 3.871l-25.554-1.495zm7.235 5.811c-2.957-.237-3.887-1.813-5.374-3.56l26.821 1.532 1.87 3.894-23.317-1.866zm7.235 5.945c-2.949-.311-3.887-1.947-5.381-3.71l22.51 1.8c.783 1.562 1.901 2.931 3.286 4.071l-20.415-2.16zm28.714 47.26c-2.534 0-3.02-1.007-3.02-2.762v-7.499c0-1.68.486-2.761 3.02-2.761 2.714 0 3.176 1.08 3.176 2.761V78.3c0 1.762-.634 2.769-3.176 2.769zm0 2.931c4.646 0 6.68-1.71 6.68-5.522v-7.84c0-3.916-1.956-5.523-6.68-5.523-4.717 0-6.523 1.607-6.523 5.523v7.832c0 3.82 1.877 5.53 6.523 5.53zm37.607-18.67v18.522h11.6v-3.028h-8.104v-4.878h6.602V72.97h-6.602v-4.76h7.736v-2.88h-11.232zm-63.95 18.5h11.333v-3.132h-6.774v-.081l6.797-12.674V65.3H42.174v3.132h6.476v.081l-7.063 13.222v2.095h.008zm129.817-18.426h-11.49v2.932h4.028v15.353h3.45V68.336h4.005v-2.932h.007zm-20.633 6.019h-3.497V83.71h3.497V71.423zm-13.125 9.26h-7.478V65.33h-3.496v18.36h10.981v-3.007h-.007zm-40.65 3.006l-4.255-6.988c2.338-.718 3.347-2.191 3.347-4.908v-.955c0-3.887-2.19-5.508-6.875-5.508h-4.889v18.36h3.473v-6.464h1.283l3.856 6.463h4.06zm-9.222-9.49v-5.841h1.486c2.698 0 3.176.903 3.176 2.643v.621c0 1.74-.704 2.577-3.223 2.577h-1.44zm64.686-8.795l-2.096 1.451.805 2.325-2.096-1.451-2.096 1.45.806-2.324-2.104-1.45h2.596c.165-.482.391-1.156.798-2.34l.798 2.34h2.589z" fill="#fff"/></svg>