<svg width="30" height="32" fill="none" xmlns="http://www.w3.org/2000/svg"><path fill-rule="evenodd" clip-rule="evenodd" d="M26.45 11.418l-5.802 4.032-2.41-3.036c.909 2.692 1.308 3.847 3.947 11.602l-6.899-4.834-6.899 4.834c2.64-7.755 3.039-8.91 3.948-11.602l-2.41 3.036-5.802-4.032 8.542.013c.542-1.604 1.29-3.842 2.621-7.8 1.331 3.958 2.084 6.196 2.621 7.8l8.543-.013zm3.328-7.28v15.388c0 2.273-.39 3.785-4.21 6.08l-9.607 5.773v-1.771l8.51-5.116c1.377-.824 2.906-1.86 3.324-3.239.17-.555.188-1.159.188-1.727V4.949l1.795-.81zM14.612 31.38l-9.603-5.772C1.189 23.312.799 21.8.799 19.527V4.138l1.795.811v14.577c0 .568.019 1.172.188 1.727.413 1.38 1.947 2.415 3.324 3.239l8.51 5.116v1.771h-.005zM1.34 3.164C5.59 1.644 10.31.798 15.285.798c4.976 0 9.7.846 13.945 2.366l-1.937.877c-3.81-1.216-7.877-1.837-12.008-1.837-4.131 0-8.198.617-12.008 1.837L1.34 3.164z" fill="#2596CF"/></svg>