<svg width="1200" height="195" fill="none" xmlns="http://www.w3.org/2000/svg"><path d="M-179.567 80.88c4.546-2.758 6.006-8.69 3.251-13.242a60.28 60.28 0 00-21.767-21.19 59.483 59.483 0 00-29.262-7.669c-16.477 0-31.411 6.704-42.212 17.52-10.801 10.814-17.496 25.768-17.496 42.266 0 16.499 6.695 31.452 17.496 42.267 10.801 10.815 25.735 17.52 42.212 17.52 37.583 0 64.144-30.294 93.076-63.29 30.298-34.574 63.47-72.383 112.787-74.993.332.034.668.052 1.01.052 11.545 0 22.87 3.2 33.011 8.443 11.298 5.823 21.108 14.1 28.19 23.29 3.252 4.22 9.315 4.993 13.53 1.738 4.217-3.256 5.016-9.327 1.764-13.549-8.763-11.368-20.832-21.55-34.638-28.67C8.571 4.78-5.758.75-20.473.75c-.168 0-.335.005-.5.013a9.74 9.74 0 00-.961-.002c-57.747 2.786-93.869 43.97-126.848 81.572l-.008.01c-25.9 29.548-49.679 56.641-78.582 56.641-11.16 0-21.244-4.525-28.546-11.836a40.355 40.355 0 01-11.82-28.583c0-11.173 4.518-21.271 11.82-28.582 7.302-7.312 17.414-11.836 28.545-11.836 7.22 0 13.97 1.903 19.811 5.187a40.345 40.345 0 0114.769 14.29c2.755 4.553 8.679 6.015 13.226 3.257z" fill="url(#paint0_linear)"/><path fill-rule="evenodd" clip-rule="evenodd" d="M-63.32 184.258c-13.804-7.118-25.872-17.299-34.634-28.665-3.251-4.222-2.48-10.291 1.763-13.547 4.216-3.255 10.278-2.483 13.53 1.738 7.08 9.188 16.89 17.465 28.186 23.286 10.14 5.242 21.465 8.442 33.01 8.442a9.6 9.6 0 01.963.048c49.331-2.603 82.512-40.422 112.817-75.004 28.934-33.002 55.498-63.3 93.085-63.3 16.478 0 31.414 6.706 42.216 17.522 10.802 10.817 17.498 25.772 17.498 42.273 0 2.518-.156 5-.459 7.436 6.584-6.925 13.183-14.451 19.926-22.144l.008-.01C297.568 44.731 333.69 3.547 391.437.761a9.76 9.76 0 01.959.002 10.057 10.057 0 01.503-.013c14.715 0 29.044 4.03 41.857 10.624 13.806 7.119 25.876 17.301 34.639 28.67 3.251 4.221 2.452 10.292-1.764 13.548-4.216 3.256-10.278 2.483-13.53-1.739-7.082-9.188-16.892-17.466-28.19-23.288-10.141-5.243-21.466-8.444-33.012-8.444a10.336 10.336 0 01-.497-.012 9.873 9.873 0 01-.512-.04c-49.317 2.61-82.491 40.42-112.788 74.993-28.932 32.996-55.493 63.29-93.076 63.29-16.477 0-31.411-6.704-42.212-17.52-10.801-10.815-17.496-25.768-17.496-42.267 0-2.523.156-5.01.46-7.45-6.588 6.93-13.193 14.462-19.941 22.161l-.008.009c-32.983 37.607-69.108 78.798-126.861 81.585a9.643 9.643 0 01-.947-.002 9.82 9.82 0 01-.487.012c-14.713 0-29.069-4.028-41.853-10.622zm214.164-66.264a9.743 9.743 0 00-.92-1.275 40.331 40.331 0 01-4.291-18.154c0-11.173 4.518-21.271 11.82-28.582 7.302-7.311 17.414-11.836 28.545-11.836 7.219 0 13.97 1.904 19.811 5.187a40.341 40.341 0 0114.769 14.291 9.7 9.7 0 00.944 1.303 40.338 40.338 0 014.275 18.123c0 11.175-4.519 21.275-11.822 28.587-7.302 7.312-17.415 11.837-28.548 11.837a40.314 40.314 0 01-19.813-5.187c-6.09-3.449-11.188-8.361-14.77-14.294z" fill="url(#paint1_linear)"/><path fill-rule="evenodd" clip-rule="evenodd" d="M38.428 97.051c0 2.518-.156 5-.458 7.436 6.583-6.925 13.182-14.451 19.925-22.144l.009-.01c32.98-37.602 69.1-78.786 126.848-81.572a9.87 9.87 0 01.958.002c.167-.008.334-.013.503-.013 14.715 0 29.044 4.029 41.858 10.624 13.805 7.119 25.875 17.3 34.638 28.67 3.251 4.221 2.452 10.292-1.764 13.548-4.216 3.255-10.278 2.483-13.53-1.739-7.082-9.188-16.892-17.466-28.19-23.289-10.141-5.242-21.466-8.443-33.012-8.443-.341 0-.677-.018-1.008-.052-49.317 2.61-82.491 40.42-112.789 74.993-28.93 32.996-55.492 63.29-93.075 63.29-16.477 0-31.411-6.704-42.212-17.52-10.801-10.815-17.497-25.768-17.497-42.267 0-2.523.157-5.01.46-7.451-6.588 6.93-13.192 14.463-19.94 22.162l-.01.01c-32.982 37.607-69.107 78.797-126.86 81.583-5.318.249-9.837-3.863-10.085-9.188-.248-5.326 3.858-9.851 9.176-10.099 49.574-2.401 82.862-40.342 113.256-75.027 28.934-33.001 55.498-63.299 93.085-63.299 16.479 0 31.414 6.705 42.216 17.522C31.732 65.594 38.428 80.55 38.428 97.051zm-19.317 0c0-6.508-1.54-12.668-4.275-18.124a9.64 9.64 0 01-.943-1.302A40.345 40.345 0 00-.876 63.334a40.306 40.306 0 00-19.81-5.187c-11.133 0-21.245 4.525-28.546 11.836-7.302 7.311-11.82 17.409-11.82 28.582a40.336 40.336 0 004.291 18.155c.335.393.643.818.92 1.274 3.582 5.933 8.68 10.844 14.77 14.294a40.314 40.314 0 0019.812 5.187c11.133 0 21.246-4.525 28.549-11.837 7.302-7.312 11.821-17.412 11.821-28.587z" fill="url(#paint2_linear)"/><path d="M-185.301 11.374c13.806 7.119 25.876 17.3 34.639 28.67 3.251 4.22 2.452 10.291-1.764 13.547-4.216 3.256-10.278 2.484-13.53-1.738-7.082-9.188-16.892-17.467-28.19-23.289-10.141-5.242-21.466-8.443-33.012-8.443-5.346 0-9.673-4.332-9.673-9.686 0-5.353 4.327-9.685 9.673-9.685 14.715 0 29.044 4.029 41.857 10.624z" fill="url(#paint3_linear)"/><path fill-rule="evenodd" clip-rule="evenodd" d="M108.732 155.593c8.762 11.367 20.83 21.547 34.634 28.665 12.785 6.594 27.141 10.622 41.854 10.622l.229-.002.161-.006.098-.004c.312.016.627.017.946.002 57.753-2.787 93.878-43.978 126.86-81.585l.008-.009c6.749-7.699 13.353-15.232 19.942-22.163a60.3 60.3 0 00-.46 7.453c0 16.498 6.695 31.451 17.496 42.267 10.801 10.815 25.735 17.519 42.212 17.519 37.583 0 64.144-30.293 93.075-63.29 30.299-34.574 63.473-72.384 112.79-74.993a8.756 8.756 0 00.25.022l.116.009a9.835 9.835 0 00.641.02c11.546 0 22.872 3.201 33.012 8.444 11.298 5.822 21.108 14.1 28.19 23.289 3.252 4.222 9.314 4.994 13.53 1.738 4.217-3.256 5.016-9.326 1.764-13.548-8.763-11.368-20.833-21.55-34.638-28.67C628.628 4.78 614.299.75 599.584.75a9.8 9.8 0 00-.504.013l-.1-.005-.073-.002-.041-.002-.093-.002a10.263 10.263 0 00-.453.002l-.101.003-.096.004c-57.747 2.786-93.869 43.97-126.848 81.572l-.008.01c-6.743 7.693-13.343 15.22-19.926 22.145a60.45 60.45 0 00.458-7.437c0-16.5-6.696-31.456-17.498-42.273-10.802-10.816-25.737-17.522-42.216-17.522-37.587 0-64.151 30.298-93.085 63.3-30.305 34.582-63.486 72.401-112.817 75.004a9.887 9.887 0 00-.963-.048c-11.545 0-22.869-3.2-33.009-8.442-11.297-5.821-21.106-14.098-28.187-23.285-3.251-4.222-9.313-4.994-13.529-1.739-4.243 3.256-5.015 9.326-1.763 13.547zm318.532-77.968c.282.467.598.901.943 1.302a40.342 40.342 0 014.275 18.124c0 11.175-4.519 21.275-11.821 28.587-7.303 7.312-17.416 11.837-28.548 11.837a40.314 40.314 0 01-19.813-5.187c-6.09-3.449-11.188-8.361-14.77-14.294a9.732 9.732 0 00-.92-1.274 40.335 40.335 0 01-4.291-18.154c0-11.174 4.518-21.272 11.82-28.583 7.302-7.311 17.414-11.836 28.545-11.836 7.219 0 13.97 1.904 19.811 5.187a40.342 40.342 0 0114.769 14.291z" fill="url(#paint4_linear)"/><path fill-rule="evenodd" clip-rule="evenodd" d="M315.417 155.593c8.762 11.367 20.83 21.547 34.635 28.665 12.784 6.594 27.14 10.622 41.853 10.622h.101l.063-.001c.109-.002.217-.005.325-.011l.161.007.151.004.162.001a9.3 9.3 0 00.471-.01c57.754-2.787 93.878-43.977 126.861-81.584l.008-.01c6.749-7.699 13.353-15.232 19.942-22.162a60.285 60.285 0 00-.461 7.451c0 16.499 6.696 31.452 17.497 42.267 10.801 10.815 25.735 17.52 42.212 17.52 37.582 0 64.144-30.294 93.075-63.29 30.298-34.574 63.471-72.383 112.788-74.993.331.034.668.052 1.009.052 11.546 0 22.871 3.2 33.012 8.443 11.298 5.823 21.108 14.1 28.19 23.29 3.252 4.22 9.314 4.993 13.53 1.738 4.216-3.256 5.015-9.327 1.764-13.549-8.763-11.368-20.833-21.55-34.638-28.67C835.314 4.78 820.985.75 806.27.75c-.103 0-.206.002-.308.005l-.065.002a8.328 8.328 0 00-.128.006 9.747 9.747 0 00-.961-.002c-57.747 2.786-93.868 43.97-126.847 81.572l-.009.01c-6.743 7.692-13.342 15.219-19.925 22.144.302-2.436.458-4.918.458-7.436 0-16.5-6.696-31.456-17.498-42.273-10.802-10.816-25.737-17.521-42.216-17.521-37.587 0-64.151 30.297-93.085 63.299-30.304 34.582-63.485 72.401-112.816 75.004a9.623 9.623 0 00-.965-.048c-11.545 0-22.869-3.2-33.009-8.442-11.297-5.821-21.106-14.098-28.187-23.285-3.251-4.222-9.313-4.994-13.529-1.739-4.243 3.256-5.014 9.326-1.763 13.547zm318.532-77.968c.283.467.599.901.944 1.302a40.34 40.34 0 014.275 18.124c0 11.176-4.519 21.275-11.821 28.587-7.303 7.312-17.416 11.837-28.549 11.837a40.302 40.302 0 01-19.812-5.187c-6.09-3.449-11.188-8.361-14.771-14.293a9.67 9.67 0 00-.919-1.275 40.336 40.336 0 01-4.292-18.155c0-11.173 4.519-21.271 11.821-28.582 7.301-7.312 17.413-11.836 28.545-11.836 7.219 0 13.97 1.903 19.811 5.187a40.35 40.35 0 0114.768 14.29z" fill="url(#paint5_linear)"/><path fill-rule="evenodd" clip-rule="evenodd" d="M522.103 155.593c8.762 11.367 20.83 21.547 34.635 28.665 12.784 6.594 27.14 10.622 41.853 10.622h.095l.115-.002c.094-.002.187-.005.28-.01.312.016.626.016.944.001 57.753-2.786 93.878-43.976 126.86-81.583l.009-.01c6.748-7.699 13.352-15.232 19.941-22.162a60.286 60.286 0 00-.46 7.451c0 16.499 6.695 31.452 17.496 42.267 10.801 10.816 25.735 17.52 42.212 17.52 37.583 0 64.144-30.294 93.075-63.29 30.299-34.574 63.472-72.383 112.792-74.993.33.034.66.052 1.01.052 11.54 0 22.87 3.2 33.01 8.443 11.3 5.823 21.11 14.1 28.19 23.29 3.25 4.22 9.31 4.993 13.53 1.738 4.21-3.256 5.01-9.327 1.76-13.549-8.76-11.368-20.83-21.55-34.64-28.67C1042 4.78 1027.67.75 1012.96.75c-.12 0-.23.002-.35.007l-.16.006a9.77 9.77 0 00-.96-.002c-57.743 2.786-93.865 43.97-126.844 81.572l-.008.01c-6.743 7.693-13.342 15.219-19.926 22.144a60.24 60.24 0 00.459-7.436c0-16.5-6.697-31.457-17.499-42.273-10.802-10.817-25.737-17.522-42.216-17.522-37.586 0-64.15 30.298-93.084 63.299-30.306 34.583-63.487 72.403-112.82 75.005a9.847 9.847 0 00-.961-.047c-11.545 0-22.869-3.201-33.009-8.443-11.297-5.821-21.106-14.098-28.187-23.285-3.251-4.222-9.313-4.994-13.529-1.739-4.243 3.256-5.014 9.326-1.763 13.547zm318.532-77.968c.283.467.599.902.944 1.303a40.35 40.35 0 014.275 18.123c0 11.175-4.52 21.275-11.822 28.587-7.302 7.312-17.415 11.837-28.548 11.837a40.314 40.314 0 01-19.813-5.187c-6.09-3.45-11.188-8.361-14.77-14.294a9.743 9.743 0 00-.92-1.275 40.332 40.332 0 01-4.292-18.154c0-11.173 4.519-21.271 11.821-28.582s17.414-11.836 28.545-11.836c7.219 0 13.97 1.904 19.811 5.187a40.349 40.349 0 0114.769 14.291z" fill="url(#paint6_linear)"/><path fill-rule="evenodd" clip-rule="evenodd" d="M728.789 155.593c8.762 11.366 20.83 21.547 34.634 28.665 12.785 6.594 27.14 10.622 41.854 10.622h.07l.129-.002.162-.004.126-.006c.312.016.628.017.947.002 57.753-2.787 93.878-43.978 126.86-81.585l.008-.009c6.749-7.699 13.353-15.232 19.942-22.162a60.29 60.29 0 00-.461 7.451c0 16.499 6.696 31.452 17.497 42.267 10.801 10.816 25.735 17.52 42.213 17.52 37.58 0 64.14-30.294 93.07-63.29 30.3-34.574 63.48-72.382 112.79-74.993.33.035.67.052 1.01.052 11.55 0 22.87 3.2 33.01 8.444 11.3 5.822 21.11 14.1 28.19 23.288 3.25 4.222 9.32 4.995 13.53 1.739 4.22-3.256 5.02-9.327 1.77-13.549-8.77-11.368-20.84-21.55-34.64-28.67C1248.69 4.78 1234.36.75 1219.64.75c-.17 0-.33.005-.5.013a9.786 9.786 0 00-.96-.002c-57.75 2.786-93.87 43.97-126.85 81.572l-.01.01c-6.74 7.693-13.34 15.22-19.92 22.144.3-2.436.46-4.918.46-7.436 0-16.5-6.7-31.456-17.5-42.273-10.8-10.816-25.74-17.522-42.22-17.522-37.585 0-64.149 30.298-93.083 63.3-30.304 34.582-63.485 72.401-112.816 75.004a9.603 9.603 0 00-.964-.048c-11.545 0-22.869-3.2-33.009-8.442-11.297-5.821-21.106-14.098-28.187-23.286-3.252-4.221-9.313-4.993-13.529-1.738-4.243 3.256-5.015 9.325-1.763 13.547zm318.531-77.968c.28.467.6.901.94 1.302a40.28 40.28 0 014.28 18.124c0 11.175-4.52 21.275-11.82 28.587-7.3 7.312-17.42 11.837-28.55 11.837a40.314 40.314 0 01-19.813-5.187c-6.09-3.449-11.188-8.361-14.77-14.294a9.732 9.732 0 00-.92-1.274 40.336 40.336 0 01-4.292-18.155c0-11.173 4.519-21.271 11.821-28.582s17.414-11.836 28.544-11.836c7.22 0 13.97 1.904 19.81 5.187a40.329 40.329 0 0114.77 14.291z" fill="url(#paint7_linear)"/><path fill-rule="evenodd" clip-rule="evenodd" d="M935.474 155.593c8.762 11.367 20.83 21.547 34.634 28.665 12.785 6.594 27.141 10.622 41.852 10.622l.13-.001.12-.002.24-.009c.31.016.63.017.95.002 57.75-2.787 93.87-43.978 126.86-81.585v-.009c6.75-7.699 13.36-15.232 19.95-22.162a59.15 59.15 0 00-.46 7.451c0 16.499 6.69 31.452 17.49 42.268 10.8 10.815 25.74 17.519 42.21 17.519 37.59 0 64.15-30.293 93.08-63.29 30.39-34.68 63.68-72.616 113.24-75.016 5.32-.248 9.43-4.773 9.18-10.098-.25-5.325-4.77-9.435-10.08-9.187-57.75 2.786-93.87 43.97-126.85 81.572l-.01.01c-6.74 7.693-13.34 15.22-19.93 22.144.31-2.436.46-4.918.46-7.436 0-16.5-6.69-31.456-17.5-42.273-10.8-10.816-25.73-17.522-42.21-17.522-37.59 0-64.15 30.298-93.09 63.3-30.3 34.582-63.48 72.401-112.81 75.004a10 10 0 00-.97-.048c-11.54 0-22.867-3.2-33.007-8.442-11.297-5.821-21.106-14.098-28.187-23.285-3.251-4.222-9.313-4.994-13.529-1.739-4.243 3.256-5.014 9.326-1.763 13.547zm318.536-77.968c.28.467.59.901.94 1.302a40.403 40.403 0 014.27 18.124 40.282 40.282 0 01-11.82 28.587c-7.3 7.312-17.41 11.837-28.54 11.837-7.22 0-13.98-1.904-19.82-5.187-6.09-3.449-11.19-8.361-14.77-14.294a8.809 8.809 0 00-.92-1.274 40.4 40.4 0 01-4.29-18.154c0-11.174 4.52-21.272 11.82-28.583 7.3-7.311 17.42-11.836 28.55-11.836 7.22 0 13.97 1.904 19.81 5.187a40.407 40.407 0 0114.77 14.291z" fill="url(#paint8_linear)"/><path d="M1142.16 155.593c8.76 11.367 20.83 21.547 34.63 28.665 12.79 6.594 27.14 10.622 41.86 10.622.16 0 .32-.004.49-.012.31.016.62.017.94.002 57.75-2.787 93.88-43.977 126.86-81.585l.01-.009c25.9-29.552 49.68-56.65 78.59-56.65 11.16 0 21.25 4.526 28.55 11.839a40.372 40.372 0 0111.82 28.586c0 11.176-4.52 21.275-11.82 28.587-7.3 7.312-17.42 11.837-28.55 11.837-7.22 0-13.97-1.903-19.81-5.187-6.09-3.449-11.19-8.361-14.77-14.293-2.76-4.553-8.68-6.016-13.23-3.256-4.55 2.759-6.01 8.692-3.25 13.244 5.35 8.83 12.87 16.143 21.77 21.192a59.462 59.462 0 0029.26 7.671c16.48 0 31.42-6.705 42.22-17.522 10.8-10.816 17.5-25.772 17.5-42.273 0-16.5-6.7-31.456-17.5-42.273-10.8-10.816-25.74-17.521-42.22-17.521-37.58 0-64.15 30.297-93.08 63.299-30.31 34.582-63.49 72.401-112.82 75.004a9.493 9.493 0 00-.96-.048c-11.55 0-22.87-3.2-33.01-8.442-11.3-5.821-21.11-14.098-28.19-23.285-3.25-4.222-9.31-4.994-13.53-1.739-4.24 3.256-5.01 9.326-1.76 13.547z" fill="url(#paint9_linear)"/><path d="M1348.85 155.593c8.76 11.367 20.83 21.547 34.63 28.665 12.78 6.594 27.14 10.622 41.85 10.622 5.35 0 9.68-4.331 9.68-9.684a9.676 9.676 0 00-9.68-9.683c-11.54 0-22.87-3.201-33.01-8.443-11.29-5.821-21.1-14.098-28.18-23.285-3.25-4.222-9.32-4.994-13.53-1.739a9.644 9.644 0 00-1.76 13.547z" fill="url(#paint10_linear)"/><defs><linearGradient id="paint0_linear" x1="1201.33" y1="97.78" x2="-97.073" y2="97.779" gradientUnits="userSpaceOnUse"><stop stop-color="#7C0540" stop-opacity="0"/><stop offset=".432" stop-color="#7C0540"/><stop offset="1" stop-color="#7C0540" stop-opacity="0"/></linearGradient><linearGradient id="paint1_linear" x1="1201.33" y1="97.78" x2="-97.073" y2="97.779" gradientUnits="userSpaceOnUse"><stop stop-color="#7C0540" stop-opacity="0"/><stop offset=".432" stop-color="#7C0540"/><stop offset="1" stop-color="#7C0540" stop-opacity="0"/></linearGradient><linearGradient id="paint2_linear" x1="1201.33" y1="97.78" x2="-97.073" y2="97.779" gradientUnits="userSpaceOnUse"><stop stop-color="#7C0540" stop-opacity="0"/><stop offset=".432" stop-color="#7C0540"/><stop offset="1" stop-color="#7C0540" stop-opacity="0"/></linearGradient><linearGradient id="paint3_linear" x1="1201.33" y1="97.78" x2="-97.073" y2="97.779" gradientUnits="userSpaceOnUse"><stop stop-color="#7C0540" stop-opacity="0"/><stop offset=".432" stop-color="#7C0540"/><stop offset="1" stop-color="#7C0540" stop-opacity="0"/></linearGradient><linearGradient id="paint4_linear" x1="1201.33" y1="97.78" x2="-97.073" y2="97.779" gradientUnits="userSpaceOnUse"><stop stop-color="#7C0540" stop-opacity="0"/><stop offset=".432" stop-color="#7C0540"/><stop offset="1" stop-color="#7C0540" stop-opacity="0"/></linearGradient><linearGradient id="paint5_linear" x1="1201.33" y1="97.78" x2="-97.073" y2="97.779" gradientUnits="userSpaceOnUse"><stop stop-color="#7C0540" stop-opacity="0"/><stop offset=".432" stop-color="#7C0540"/><stop offset="1" stop-color="#7C0540" stop-opacity="0"/></linearGradient><linearGradient id="paint6_linear" x1="1201.33" y1="97.78" x2="-97.073" y2="97.779" gradientUnits="userSpaceOnUse"><stop stop-color="#7C0540" stop-opacity="0"/><stop offset=".432" stop-color="#7C0540"/><stop offset="1" stop-color="#7C0540" stop-opacity="0"/></linearGradient><linearGradient id="paint7_linear" x1="1201.33" y1="97.78" x2="-97.073" y2="97.779" gradientUnits="userSpaceOnUse"><stop stop-color="#7C0540" stop-opacity="0"/><stop offset=".432" stop-color="#7C0540"/><stop offset="1" stop-color="#7C0540" stop-opacity="0"/></linearGradient><linearGradient id="paint8_linear" x1="1201.33" y1="97.78" x2="-97.073" y2="97.779" gradientUnits="userSpaceOnUse"><stop stop-color="#7C0540" stop-opacity="0"/><stop offset=".432" stop-color="#7C0540"/><stop offset="1" stop-color="#7C0540" stop-opacity="0"/></linearGradient><linearGradient id="paint9_linear" x1="1201.33" y1="97.78" x2="-97.073" y2="97.779" gradientUnits="userSpaceOnUse"><stop stop-color="#7C0540" stop-opacity="0"/><stop offset=".432" stop-color="#7C0540"/><stop offset="1" stop-color="#7C0540" stop-opacity="0"/></linearGradient><linearGradient id="paint10_linear" x1="1201.33" y1="97.78" x2="-97.073" y2="97.779" gradientUnits="userSpaceOnUse"><stop stop-color="#7C0540" stop-opacity="0"/><stop offset=".432" stop-color="#7C0540"/><stop offset="1" stop-color="#7C0540" stop-opacity="0"/></linearGradient></defs></svg>