<svg width="1920" height="1387" fill="none" xmlns="http://www.w3.org/2000/svg"><g opacity=".7" filter="url(#filter0_d)" fill-rule="evenodd" clip-rule="evenodd" fill="#000"><path d="M1197.37 830.824c-12.6-20.773-5.92-47.841 14.87-60.431 20.79-12.59 47.89-5.917 60.49 14.856 16.39 27.068 39.7 49.604 67.55 65.215 26.72 14.982 57.6 23.669 90.62 23.669 50.91 0 97.16-20.647 130.56-54.01 33.4-33.363 54.06-79.442 54.06-130.431 0-50.863-20.66-97.068-54.06-130.431-33.4-33.363-79.52-54.01-130.56-54.01-132.21 0-240.97 123.632-359.43 258.469-150.854 171.6-316.074 359.57-580.225 372.28-24.323 1.14-44.991-17.62-46.125-41.92-1.134-24.3 17.644-44.95 41.967-46.08 226.72-10.95 378.96-184.065 517.963-342.319 132.33-150.574 253.82-288.811 425.72-288.811 75.36 0 143.67 30.594 193.07 79.946 49.4 49.352 80.03 117.589 80.03 192.876s-30.63 143.524-80.03 192.876c-49.4 49.353-117.71 79.946-193.07 79.946-48.52 0-94.14-12.716-133.84-35-40.83-23.165-75.24-56.528-99.56-96.69zM838.951 429.46c-40.076-51.87-95.275-98.327-158.415-130.808-58.476-30.09-124.135-48.471-191.433-48.471-24.449 0-44.235 19.766-44.235 44.19s19.786 44.19 44.235 44.19c52.805 0 104.602 14.605 150.979 38.525 51.671 26.565 96.536 64.334 128.925 106.259 14.871 19.262 42.597 22.787 61.879 7.931 19.408-14.856 22.936-42.554 8.065-61.816z"/><path d="M722.631 555.643c12.603 20.773 5.923 47.841-14.871 60.431-20.794 12.59-47.89 5.917-60.493-14.856-16.383-27.068-39.698-49.478-67.55-65.216-26.717-14.981-57.593-23.668-90.612-23.668-50.915 0-97.166 20.647-130.563 54.01-33.397 33.363-54.065 79.442-54.065 130.431 0 50.863 20.668 97.067 54.065 130.431 33.397 33.363 79.522 54.01 130.563 54.01 132.201 0 240.961-123.632 359.426-258.47C999.384 451.147 1164.6 263.181 1428.75 250.465c24.33-1.133 45 17.626 46.13 41.924 1.13 24.298-17.64 44.946-41.97 46.079-226.72 10.953-378.96 184.063-517.963 342.318C782.619 831.36 661.13 969.597 489.231 969.597c-75.364 0-143.67-30.594-193.072-79.946-49.402-49.352-80.027-117.589-80.027-192.876 0-75.288 30.625-143.524 80.027-192.877 49.402-49.352 117.708-79.945 193.072-79.945 48.52 0 94.141 12.716 133.839 35 40.707 23.039 75.112 56.402 99.561 96.69zm358.289 401.238c40.08 51.869 95.28 98.329 158.42 130.809 58.6 30.09 124.13 48.47 191.43 48.47 24.45 0 44.24-19.77 44.24-44.19 0-24.42-19.79-44.19-44.24-44.19-52.8 0-104.6-14.6-150.98-38.53-51.67-26.56-96.53-64.329-128.92-106.254-14.87-19.262-42.6-22.787-61.88-7.931-19.28 14.856-22.94 42.553-8.07 61.816z"/></g><defs><filter id="filter0_d" x="-33.868" y=".181" width="1987.74" height="1385.98" filterUnits="userSpaceOnUse" color-interpolation-filters="sRGB"><feFlood flood-opacity="0" result="BackgroundImageFix"/><feColorMatrix in="SourceAlpha" values="0 0 0 0 0 0 0 0 0 0 0 0 0 0 0 0 0 0 127 0"/><feOffset/><feGaussianBlur stdDeviation="125"/><feColorMatrix values="0 0 0 0 1 0 0 0 0 0 0 0 0 0 0.541176 0 0 0 0.4 0"/><feBlend in2="BackgroundImageFix" result="effect1_dropShadow"/><feBlend in="SourceGraphic" in2="effect1_dropShadow" result="shape"/></filter></defs></svg>